<?xml version="1.0" encoding="utf-8"?>
<!-- Generator: Adobe Illustrator 18.1.1, SVG Export Plug-In . SVG Version: 6.00 Build 0)  -->
<!DOCTYPE svg PUBLIC "-//W3C//DTD SVG 1.1//EN" "http://www.w3.org/Graphics/SVG/1.1/DTD/svg11.dtd">
<svg version="1.1" id="Layer_1" xmlns="http://www.w3.org/2000/svg" xmlns:xlink="http://www.w3.org/1999/xlink" x="0px" y="0px"
	 viewBox="0 0 29.7 24.2" enable-background="new 0 0 29.7 24.2" xml:space="preserve">
<g>
	<path fill="#FFFFFF" d="M0,21.4c2.7,1.7,5.9,2.7,9.4,2.7c11.2,0,17.4-9.3,17.4-17.4c0-0.3,0-0.5,0-0.8c1.2-0.9,2.2-1.9,3-3.2
		c-1.1,0.5-2.3,0.8-3.5,1c1.3-0.8,2.2-2,2.7-3.4c-1.2,0.7-2.5,1.2-3.9,1.5C23.9,0.7,22.3,0,20.6,0c-3.4,0-6.1,2.7-6.1,6.1
		c0,0.5,0.1,0.9,0.2,1.4C9.6,7.2,5.1,4.8,2.1,1.1C1.5,2,1.2,3.1,1.2,4.2c0,2.1,1.5,4,3.1,5.1C3.4,9.2,2,9,2,8.5c0,0,0,0.1,0,0.1
		c0,3,1.7,5.4,4.5,6c-0.5,0.1-1.2,0.2-1.8,0.2c-0.4,0-0.9,0-1.2-0.1c0.8,2.4,3,4.2,5.6,4.2c-2.1,1.6-4.7,2.6-7.6,2.6
		C1,21.5,0.5,21.5,0,21.4z"/>
</g>
</svg>
