<?xml version="1.0" encoding="utf-8"?>
<!-- Generator: Adobe Illustrator 18.1.1, SVG Export Plug-In . SVG Version: 6.00 Build 0)  -->
<!DOCTYPE svg PUBLIC "-//W3C//DTD SVG 1.1//EN" "http://www.w3.org/Graphics/SVG/1.1/DTD/svg11.dtd">
<svg version="1.1" id="Layer_1" xmlns="http://www.w3.org/2000/svg" xmlns:xlink="http://www.w3.org/1999/xlink" x="0px" y="0px"
	 viewBox="596 537 32 32" enable-background="new 596 537 32 32" xml:space="preserve">
<g>
	<path fill="#BBBA5E" d="M614,566v-12h4v-7h-4v-1.1c0,0-0.2-1.1,0.6-1.7c0.3-0.3,0.7-0.6,1.3-0.5c0.8,0,2.1,0,2.1,0v-3.9
		c0,0-5.1-0.1-5.9,0.2c-1.7,0.5-3.2,1.3-3.5,2.8c-0.3,1.4-0.2,4.4-0.2,4.4H606v7h2v12H614z"/>
</g>
<g>
	<path fill="#BBBA5E" d="M564,563.1c2.9,1.9,6.4,2.9,10.1,2.9c12.1,0,18.7-10,18.7-18.7c0-0.3,0-0.6,0-0.8c1.3-0.9,2.4-2.1,3.3-3.4
		c-1.2,0.5-2.4,0.9-3.8,1c1.4-0.8,2.4-2.1,2.9-3.6c-1.3,0.8-2.7,1.3-4.2,1.6c-1.2-1.3-2.9-2.1-4.8-2.1c-3.6,0-6.6,2.9-6.6,6.6
		c0,0.5,0.1,1,0.2,1.5c-5.5-0.3-10.3-2.9-13.5-6.9c-0.6,1-0.9,2.1-0.9,3.3c0,2.3,1.6,4.3,3.4,5.5c-1.1,0-2.5-0.3-2.5-0.8
		c0,0,0,0.1,0,0.1c0,3.2,1.8,5.8,4.8,6.4c-0.5,0.2-1.3,0.2-1.9,0.2c-0.4,0-0.9,0-1.3-0.1c0.8,2.6,3.2,4.5,6.1,4.6
		c-2.3,1.8-5.1,2.8-8.2,2.8C565,563.2,564.5,563.1,564,563.1z"/>
</g>
</svg>
