<?xml version="1.0" encoding="utf-8"?>
<!-- Generator: Adobe Illustrator 18.1.1, SVG Export Plug-In . SVG Version: 6.00 Build 0)  -->
<!DOCTYPE svg PUBLIC "-//W3C//DTD SVG 1.1//EN" "http://www.w3.org/Graphics/SVG/1.1/DTD/svg11.dtd">
<svg version="1.1" id="Layer_1" xmlns="http://www.w3.org/2000/svg" xmlns:xlink="http://www.w3.org/1999/xlink" x="0px" y="0px"
	 viewBox="509.1 7 444 152.9" enable-background="new 509.1 7 444 152.9" xml:space="preserve">
<g>
	<path fill="#BCBA5E" d="M662.2,10.6v10.8h9v1.8h-9v7.9c0,0.6,0.1,1.1,0.2,1.4c0.2,0.4,0.4,0.6,0.7,0.8c0.3,0.2,0.6,0.3,1,0.4
		c0.4,0.1,0.8,0.1,1.2,0.1h1.2v1.6h-11.6v-1.6h0.5c0.4,0,0.8,0,1.2-0.1c0.4-0.1,0.7-0.2,1-0.3c0.3-0.2,0.5-0.4,0.7-0.8
		c0.2-0.3,0.2-0.8,0.2-1.3V12.8c0-0.5-0.1-1-0.2-1.3c-0.2-0.3-0.4-0.6-0.7-0.8c-0.3-0.2-0.6-0.3-1-0.4c-0.4-0.1-0.8-0.1-1.2-0.1
		h-0.5V8.7h18.8l0.2,6.5H672l-0.2-1.6c0-0.4-0.1-0.8-0.3-1.2c-0.1-0.4-0.4-0.7-0.6-1c-0.3-0.3-0.6-0.5-1-0.7
		c-0.4-0.2-0.9-0.2-1.5-0.2H662.2L662.2,10.6z"/>
	<path fill="#BCBA5E" d="M679.3,25.3c0,1.4,0.1,2.6,0.3,3.7c0.2,1.1,0.5,1.9,0.9,2.7c0.4,0.7,0.9,1.3,1.6,1.6
		c0.7,0.4,1.4,0.5,2.4,0.5c0.9,0,1.7-0.2,2.4-0.5c0.7-0.4,1.2-0.9,1.6-1.6c0.4-0.7,0.7-1.6,0.9-2.7c0.2-1.1,0.3-2.3,0.3-3.7
		c0-1.4-0.1-2.6-0.3-3.7c-0.2-1-0.5-1.9-0.9-2.6c-0.4-0.7-0.9-1.2-1.6-1.6c-0.7-0.4-1.4-0.5-2.4-0.5c-0.9,0-1.7,0.2-2.4,0.5
		c-0.6,0.4-1.2,0.9-1.6,1.6c-0.4,0.7-0.7,1.6-0.9,2.6C679.4,22.7,679.3,24,679.3,25.3L679.3,25.3z M693.1,25.3
		c0,3.5-0.7,6.1-2.2,7.8c-1.5,1.7-3.7,2.6-6.5,2.6c-1.4,0-2.6-0.2-3.6-0.6c-1.1-0.4-2-1.1-2.7-1.9c-0.7-0.9-1.3-1.9-1.7-3.3
		c-0.4-1.3-0.6-2.8-0.6-4.6c0-3.5,0.7-6.1,2.2-7.8c1.5-1.7,3.7-2.6,6.6-2.6c1.3,0,2.6,0.2,3.6,0.6c1.1,0.4,2,1.1,2.7,1.9
		c0.7,0.9,1.3,1.9,1.7,3.2C692.9,22.1,693.1,23.6,693.1,25.3L693.1,25.3z"/>
	<path fill="#BCBA5E" d="M706.9,35.4h-10.8v-1.6h0.1c0.4,0,0.8,0,1.2-0.1c0.4-0.1,0.7-0.2,1-0.4c0.3-0.2,0.5-0.5,0.7-0.8
		c0.2-0.4,0.2-0.8,0.2-1.4V19.5c0-0.6-0.1-1-0.2-1.3c-0.2-0.3-0.4-0.6-0.7-0.8c-0.3-0.2-0.6-0.3-1-0.4c-0.4-0.1-0.8-0.1-1.2-0.1
		h-0.1v-1.6h5.8l0.7,3.7h0.2c0.2-0.6,0.5-1.1,0.8-1.6c0.3-0.5,0.6-0.9,0.9-1.3c0.4-0.4,0.8-0.7,1.4-0.9c0.6-0.2,1.2-0.3,2.1-0.3
		c1.4,0,2.4,0.2,3,0.7c0.7,0.5,1,1.1,1,2c0,0.4-0.1,0.8-0.2,1.1c-0.1,0.3-0.3,0.6-0.6,0.9c-0.3,0.2-0.6,0.4-1.1,0.6
		c-0.4,0.1-1,0.2-1.6,0.2c0-1-0.1-1.8-0.4-2.2c-0.3-0.5-0.8-0.7-1.5-0.7c-0.5,0-0.9,0.1-1.2,0.4c-0.4,0.3-0.7,0.6-1,1
		c-0.3,0.4-0.5,0.9-0.7,1.5c-0.2,0.6-0.3,1.1-0.5,1.7c-0.1,0.6-0.2,1.2-0.2,1.8c0,0.6-0.1,1.1-0.1,1.6v5.9c0,0.5,0.1,1,0.2,1.3
		c0.2,0.3,0.4,0.6,0.7,0.8c0.3,0.2,0.6,0.3,1,0.3c0.4,0.1,0.8,0.1,1.2,0.1h1V35.4L706.9,35.4z"/>
	<path fill="#BCBA5E" d="M723.1,17c-1.4,0-2.5,0.6-3.2,1.7c-0.7,1.1-1.2,2.8-1.3,4.9h8.6c0-1-0.1-1.9-0.2-2.7
		c-0.1-0.8-0.4-1.5-0.7-2.1c-0.3-0.6-0.7-1-1.3-1.4C724.5,17.2,723.9,17,723.1,17L723.1,17z M723.6,35.8c-1.4,0-2.6-0.2-3.6-0.7
		c-1.1-0.5-2-1.1-2.7-2c-0.7-0.9-1.3-2-1.7-3.2c-0.4-1.3-0.6-2.7-0.6-4.3c0-3.5,0.7-6.1,2.2-7.9c1.4-1.8,3.5-2.7,6.1-2.7
		c1.2,0,2.3,0.2,3.2,0.6c1,0.4,1.8,0.9,2.4,1.7c0.7,0.8,1.2,1.7,1.5,2.8c0.4,1.1,0.5,2.4,0.5,3.9v1.7h-12.5c0,1.4,0.2,2.5,0.4,3.5
		c0.2,1,0.6,1.8,1.1,2.4c0.5,0.6,1,1.1,1.7,1.4c0.7,0.3,1.5,0.4,2.4,0.4c0.6,0,1.2-0.1,1.8-0.2c0.5-0.1,1.1-0.3,1.5-0.6
		c0.4-0.2,0.8-0.5,1.2-0.8c0.3-0.3,0.6-0.6,0.8-1c0.2,0.1,0.3,0.2,0.5,0.5c0.2,0.2,0.2,0.5,0.2,0.8c0,0.4-0.1,0.8-0.4,1.2
		c-0.3,0.4-0.7,0.8-1.2,1.2c-0.5,0.4-1.2,0.7-2.1,0.9C725.7,35.6,724.7,35.8,723.6,35.8L723.6,35.8z"/>
	<path fill="#BCBA5E" d="M741,35.8c-0.9,0-1.8-0.1-2.5-0.3c-0.8-0.2-1.4-0.4-1.9-0.7c-0.5-0.3-0.9-0.7-1.2-1.2
		c-0.3-0.5-0.4-1.1-0.4-1.7c0-0.5,0.1-0.9,0.2-1.2c0.2-0.3,0.4-0.6,0.6-0.8c0.2-0.2,0.5-0.3,0.8-0.4c0.3-0.1,0.5-0.1,0.7-0.1
		c0,0.7,0.1,1.3,0.2,1.8c0.1,0.6,0.4,1.1,0.7,1.5c0.3,0.4,0.7,0.8,1.2,1c0.5,0.2,1.2,0.4,1.9,0.4c0.7,0,1.3-0.1,1.8-0.2
		c0.5-0.2,0.9-0.4,1.3-0.7c0.3-0.3,0.6-0.7,0.8-1.1c0.2-0.4,0.3-0.9,0.3-1.4c0-0.5-0.1-0.9-0.2-1.2c-0.1-0.3-0.4-0.6-0.7-0.9
		c-0.3-0.3-0.8-0.6-1.4-0.9c-0.6-0.3-1.3-0.7-2.2-1c-1-0.4-1.8-0.8-2.5-1.2c-0.7-0.4-1.3-0.8-1.8-1.3c-0.5-0.5-0.8-1-1-1.6
		c-0.2-0.6-0.3-1.3-0.3-2.1c0-0.9,0.2-1.6,0.5-2.3c0.3-0.7,0.8-1.2,1.4-1.7c0.6-0.4,1.4-0.8,2.2-1c0.9-0.2,1.8-0.3,2.9-0.3
		c0.9,0,1.7,0.1,2.4,0.3c0.7,0.2,1.3,0.4,1.7,0.7c0.5,0.3,0.8,0.7,1,1.1c0.2,0.4,0.3,0.9,0.3,1.3c0,0.7-0.2,1.2-0.7,1.6
		c-0.5,0.4-1.1,0.6-2,0.6c0-1.3-0.3-2.2-0.8-2.9c-0.5-0.7-1.3-1-2.4-1c-0.6,0-1.2,0.1-1.6,0.2c-0.4,0.1-0.8,0.4-1.1,0.6
		c-0.3,0.3-0.5,0.6-0.6,1c-0.1,0.4-0.2,0.8-0.2,1.2c0,0.5,0.1,0.9,0.3,1.2c0.2,0.3,0.4,0.7,0.8,1c0.4,0.3,0.9,0.6,1.4,0.8
		c0.6,0.3,1.3,0.6,2.1,0.9c1,0.4,1.8,0.8,2.5,1.2c0.7,0.4,1.3,0.8,1.7,1.3c0.5,0.5,0.8,1,1,1.6c0.2,0.6,0.3,1.3,0.3,2.1
		c0,1-0.2,1.8-0.5,2.6c-0.4,0.7-0.9,1.3-1.5,1.8c-0.6,0.5-1.4,0.9-2.3,1.1C743.1,35.6,742.1,35.8,741,35.8L741,35.8z"/>
	<path fill="#BCBA5E" d="M760.5,33.8c0.4,0,0.9,0,1.2-0.1c0.4-0.1,0.8-0.1,1.1-0.2v1.6c-0.2,0.1-0.4,0.1-0.6,0.2
		c-0.3,0.1-0.5,0.1-0.8,0.2c-0.3,0.1-0.6,0.1-0.9,0.1c-0.3,0-0.6,0-0.9,0c-1,0-1.8-0.1-2.4-0.3c-0.7-0.2-1.2-0.5-1.7-1
		c-0.4-0.5-0.8-1-1-1.8c-0.2-0.7-0.3-1.7-0.3-2.7V17.5h-2.8V16c0.4,0,0.9-0.1,1.5-0.3c0.5-0.2,1-0.5,1.4-0.9c0.4-0.5,0.8-1,1-1.7
		c0.3-0.6,0.5-1.4,0.7-2.4h1.7v4.6h4.9v2.1h-4.9v12.6c0,1.3,0.3,2.2,0.8,2.8C759,33.5,759.7,33.8,760.5,33.8L760.5,33.8z"/>
	<path fill="#BCBA5E" d="M790.8,35.4v-1.6h0.5c0.4,0,0.8,0,1.2-0.1c0.4-0.1,0.7-0.2,1-0.4c0.3-0.2,0.5-0.5,0.7-0.8
		c0.2-0.4,0.2-0.8,0.2-1.4v-8.8h-12.2v8.8c0,0.6,0.1,1.1,0.2,1.4c0.2,0.4,0.4,0.6,0.7,0.8c0.3,0.2,0.6,0.3,1,0.4
		c0.4,0.1,0.8,0.1,1.2,0.1h0.5v1.6h-10.9v-1.6h0.5c0.4,0,0.8,0,1.2-0.1c0.4-0.1,0.7-0.2,1-0.4c0.3-0.2,0.5-0.5,0.7-0.8
		c0.2-0.4,0.2-0.8,0.2-1.4V12.8c0-0.5-0.1-1-0.2-1.3c-0.2-0.3-0.4-0.6-0.7-0.8c-0.3-0.2-0.6-0.3-1-0.4c-0.4-0.1-0.8-0.1-1.2-0.1
		h-0.5V8.7h10.9v1.6h-0.5c-0.4,0-0.8,0-1.2,0.1c-0.4,0.1-0.7,0.2-1,0.4c-0.3,0.2-0.5,0.5-0.7,0.8c-0.2,0.4-0.2,0.8-0.2,1.4v7.6h12.2
		V13c0-0.6-0.1-1.1-0.2-1.4c-0.2-0.3-0.4-0.6-0.7-0.8c-0.3-0.2-0.6-0.3-1-0.4c-0.4-0.1-0.8-0.1-1.2-0.1h-0.5V8.7h10.9v1.6h-0.5
		c-0.4,0-0.8,0-1.2,0.1c-0.4,0.1-0.7,0.2-1,0.4c-0.3,0.2-0.5,0.5-0.7,0.8c-0.2,0.4-0.2,0.8-0.2,1.4v18.4c0,0.5,0.1,1,0.2,1.3
		c0.2,0.3,0.4,0.6,0.7,0.8c0.3,0.2,0.6,0.3,1,0.3c0.4,0.1,0.8,0.1,1.2,0.1h0.5v1.6H790.8L790.8,35.4z"/>
	<path fill="#BCBA5E" d="M808.1,9.3c0-0.4,0.1-0.8,0.2-1.1c0.1-0.3,0.3-0.5,0.5-0.7c0.2-0.2,0.4-0.3,0.7-0.4C809.7,7,810,7,810.3,7
		c0.3,0,0.6,0,0.8,0.1c0.3,0.1,0.5,0.2,0.7,0.4c0.2,0.2,0.3,0.4,0.5,0.7c0.1,0.3,0.2,0.7,0.2,1.1c0,0.4-0.1,0.8-0.2,1.1
		c-0.1,0.3-0.3,0.5-0.5,0.7c-0.2,0.2-0.4,0.3-0.7,0.4c-0.3,0.1-0.5,0.1-0.8,0.1c-0.3,0-0.6,0-0.8-0.1c-0.3-0.1-0.5-0.2-0.7-0.4
		c-0.2-0.2-0.3-0.4-0.5-0.7C808.2,10.1,808.1,9.7,808.1,9.3L808.1,9.3z M805.6,33.8c0.4,0,0.8,0,1.2-0.1c0.4-0.1,0.7-0.2,1-0.3
		c0.3-0.2,0.5-0.4,0.7-0.8c0.2-0.3,0.2-0.8,0.2-1.3V19.5c0-0.6-0.1-1-0.2-1.3c-0.2-0.3-0.4-0.6-0.7-0.8c-0.3-0.2-0.6-0.3-1-0.4
		c-0.4-0.1-0.8-0.1-1.2-0.1h-0.1v-1.6h6.7v15.8c0,0.6,0.1,1.1,0.2,1.4c0.2,0.4,0.4,0.6,0.7,0.8c0.3,0.2,0.6,0.3,1,0.4
		c0.4,0.1,0.8,0.1,1.2,0.1h0.5v1.6h-10.6v-1.6H805.6L805.6,33.8z"/>
	<path fill="#BCBA5E" d="M818.9,33.8c0.4,0,0.8,0,1.2-0.1c0.4-0.1,0.7-0.2,1-0.4c0.3-0.2,0.5-0.5,0.7-0.8c0.2-0.4,0.2-0.8,0.2-1.4
		v-20c0-0.6-0.1-1-0.2-1.3c-0.2-0.3-0.4-0.6-0.7-0.8c-0.3-0.2-0.6-0.3-1-0.4c-0.4-0.1-0.8-0.1-1.2-0.1h-0.5V7h7.1v24.1
		c0,0.6,0.1,1.1,0.2,1.4c0.2,0.4,0.4,0.6,0.7,0.8c0.3,0.2,0.6,0.3,1,0.4c0.4,0.1,0.8,0.1,1.2,0.1h0.5v1.6h-10.6v-1.6H818.9
		L818.9,33.8z"/>
	<path fill="#BCBA5E" d="M832.2,33.8c0.4,0,0.8,0,1.2-0.1c0.4-0.1,0.7-0.2,1-0.4c0.3-0.2,0.5-0.5,0.7-0.8c0.2-0.4,0.2-0.8,0.2-1.4
		v-20c0-0.6-0.1-1-0.2-1.3c-0.2-0.3-0.4-0.6-0.7-0.8c-0.3-0.2-0.6-0.3-1-0.4c-0.4-0.1-0.8-0.1-1.2-0.1h-0.5V7h7.1v24.1
		c0,0.6,0.1,1.1,0.2,1.4c0.2,0.4,0.4,0.6,0.7,0.8c0.3,0.2,0.6,0.3,1,0.4c0.4,0.1,0.8,0.1,1.2,0.1h0.5v1.6h-10.6v-1.6H832.2
		L832.2,33.8z"/>
	<path fill="#BCBA5E" d="M658.6,53.9h5.3l-2.6-8.8L658.6,53.9L658.6,53.9z M664.5,56H658l-1.5,5.1H654l6.2-19.3h2.1l6.2,19.3h-2.5
		L664.5,56L664.5,56z"/>
	<polygon fill="#BCBA5E" points="686.1,61 683.6,61 675.9,46.1 675.9,61 673.4,61 673.4,41.7 675.9,41.7 683.6,56.7 683.6,41.7 
		686.1,41.7 686.1,61 	"/>
	<polygon fill="#BCBA5E" points="694.7,61 692.2,61 692.2,41.7 694.7,41.7 694.7,61 	"/>
	<polygon fill="#BCBA5E" points="703.9,41.7 709,57.5 714,41.7 717.1,41.7 717.1,61 714.7,61 714.7,53.5 714.9,46 709.9,61 708,61 
		703,46 703.2,53.5 703.2,61 700.8,61 700.8,41.7 703.9,41.7 	"/>
	<path fill="#BCBA5E" d="M726.7,53.9h5.3l-2.6-8.8L726.7,53.9L726.7,53.9z M732.6,56H726l-1.5,5.1H722l6.2-19.3h2.1l6.2,19.3h-2.5
		L732.6,56L732.6,56z"/>
	<polygon fill="#BCBA5E" points="743.9,58.9 751.5,58.9 751.5,61 741.4,61 741.4,41.7 743.9,41.7 743.9,58.9 	"/>
	<path fill="#BCBA5E" d="M775.4,54.9c-0.1,2.1-0.7,3.7-1.7,4.8c-1.1,1.1-2.6,1.7-4.5,1.7c-1.9,0-3.5-0.7-4.6-2.2
		c-1.1-1.5-1.7-3.5-1.7-6v-3.5c0-2.5,0.6-4.5,1.8-6c1.2-1.5,2.8-2.2,4.8-2.2c1.9,0,3.3,0.6,4.3,1.7c1,1.1,1.6,2.7,1.7,4.8H773
		c-0.1-1.6-0.4-2.7-1-3.4c-0.6-0.7-1.4-1-2.5-1c-1.3,0-2.3,0.5-3,1.5c-0.7,1-1.1,2.5-1.1,4.5v3.5c0,2,0.3,3.5,1,4.5
		c0.7,1,1.6,1.6,2.9,1.6c1.3,0,2.2-0.3,2.7-0.9c0.6-0.6,0.9-1.8,1-3.4H775.4L775.4,54.9z"/>
	<polygon fill="#BCBA5E" points="783.1,58.9 790.7,58.9 790.7,61 780.6,61 780.6,41.7 783.1,41.7 783.1,58.9 	"/>
	<polygon fill="#BCBA5E" points="798.1,61 795.7,61 795.7,41.7 798.1,41.7 798.1,61 	"/>
	<polygon fill="#BCBA5E" points="816.9,61 814.5,61 806.7,46.1 806.7,61 804.3,61 804.3,41.7 806.7,41.7 814.5,56.7 814.5,41.7 
		816.9,41.7 816.9,61 	"/>
	<polygon fill="#BCBA5E" points="825.5,61 823.1,61 823.1,41.7 825.5,41.7 825.5,61 	"/>
	<path fill="#BCBA5E" d="M843.8,54.9c-0.1,2.1-0.7,3.7-1.7,4.8c-1.1,1.1-2.6,1.7-4.5,1.7c-1.9,0-3.5-0.7-4.6-2.2
		c-1.1-1.5-1.7-3.5-1.7-6v-3.5c0-2.5,0.6-4.5,1.8-6c1.2-1.5,2.8-2.2,4.8-2.2c1.9,0,3.3,0.6,4.3,1.7c1,1.1,1.6,2.7,1.7,4.8h-2.5
		c-0.1-1.6-0.4-2.7-1-3.4c-0.6-0.7-1.4-1-2.6-1c-1.3,0-2.3,0.5-3,1.5c-0.7,1-1.1,2.5-1.1,4.5v3.5c0,2,0.3,3.5,1,4.5
		c0.7,1,1.6,1.6,2.9,1.6c1.3,0,2.2-0.3,2.7-0.9c0.6-0.6,0.9-1.8,1-3.4H843.8L843.8,54.9z"/>
	<path fill="#BCBA5E" d="M657.9,72.9l-0.1,0.6H657c-0.4,0-0.6,0.1-0.6,0.4c0,0.2,0.1,0.5,0.2,0.9l0.7,2c0.2,0.7,0.4,1.3,0.4,1.8
		c0.1-0.2,0.5-0.7,1.1-1.6l1.4-1.9c0.4-0.5,0.6-0.9,0.6-1.2c0-0.3-0.2-0.4-0.7-0.4h-0.6l0.1-0.6h3.7l-0.1,0.6h-0.3
		c-0.2,0-0.4,0.1-0.6,0.2c-0.2,0.2-0.5,0.5-0.8,0.9l-3.5,4.6l-0.6,2.7c0,0.2-0.1,0.3-0.1,0.4c0,0.4,0.4,0.6,1.1,0.6h0.3l-0.1,0.6
		H654l0.1-0.6h0.3c0.5,0,0.9-0.1,1.1-0.3c0.2-0.2,0.3-0.4,0.4-0.7l0.6-2.8l-1.7-4.9c-0.1-0.3-0.2-0.5-0.3-0.6
		c-0.1-0.1-0.3-0.2-0.6-0.2h-0.2l0.1-0.6H657.9L657.9,72.9z"/>
	<path fill="#BCBA5E" d="M664.8,83c0.8,0,1.5-0.5,2-1.5c0.5-1,0.7-2.1,0.7-3.3c0-1.4-0.5-2.1-1.5-2.1c-0.8,0-1.5,0.5-2,1.5
		c-0.5,1-0.8,2.1-0.8,3.3C663.3,82.3,663.8,83,664.8,83L664.8,83z M666.2,75.4c0.9,0,1.6,0.3,2.1,0.8c0.5,0.5,0.8,1.3,0.8,2.3
		c0,1.3-0.4,2.5-1.2,3.6c-0.8,1.1-1.9,1.6-3.2,1.6c-0.9,0-1.6-0.3-2.1-0.8c-0.5-0.5-0.8-1.3-0.8-2.3c0-1.4,0.4-2.6,1.2-3.6
		C663.8,75.9,664.9,75.4,666.2,75.4L666.2,75.4z"/>
	<path fill="#BCBA5E" d="M670.6,75.5h2.8l-1,4.5c-0.2,0.9-0.3,1.5-0.3,1.8c0,0.6,0.2,0.9,0.7,0.9c0.5,0,1.1-0.4,1.7-1.1
		c0.6-0.7,1-1.5,1.2-2.4l0.8-3.7h1.5l-1,4.8c-0.1,0.7-0.2,1.3-0.2,1.7c0,0.5,0.2,0.8,0.5,0.8c0.3,0,0.6-0.1,1-0.3l0.3,0.4
		c-0.6,0.6-1.3,0.8-1.9,0.8c-0.4,0-0.7-0.1-0.9-0.4c-0.2-0.3-0.3-0.6-0.3-1c0-0.3,0-0.6,0.1-0.9h-0.1c-0.5,0.9-1,1.5-1.5,1.8
		c-0.4,0.3-0.9,0.5-1.5,0.5c-1.1,0-1.6-0.6-1.6-1.7c0-0.3,0.1-0.9,0.3-1.7l0.6-2.6c0.1-0.4,0.1-0.7,0.1-0.9c0-0.5-0.3-0.7-1.1-0.7
		h-0.1L670.6,75.5L670.6,75.5z"/>
	<path fill="#BCBA5E" d="M684.7,77.6c0-0.8-0.2-1.2-0.6-1.2c-0.5,0-1,0.5-1.5,1.4c-0.5,0.9-0.9,2-1.2,3.1l-0.6,2.7h-1.4l1.3-6
		c0.1-0.3,0.1-0.5,0.1-0.7c0-0.5-0.4-0.7-1.2-0.7h-0.1l0.1-0.6h2.7l-0.3,2.2h0.2c0.4-0.9,0.8-1.5,1.2-1.8c0.4-0.3,0.8-0.5,1.4-0.5
		c0.8,0,1.2,0.3,1.2,1C686,77.2,685.6,77.6,684.7,77.6L684.7,77.6z"/>
	<path fill="#BCBA5E" d="M693.9,82.5l0.3,0.6c-0.7,0.5-1.3,0.7-2,0.7c-1.1,0-1.6-0.6-1.6-1.8c0-0.4,0-0.8,0.1-1.3l0.9-4.3h-1.1
		l0.1-0.6c1,0,1.7-0.7,2.3-2.1h0.7l-0.4,1.9h1.8l-0.2,0.9H693l-0.9,4.3c-0.1,0.6-0.2,1-0.2,1.3c0,0.5,0.3,0.8,0.8,0.8
		C693.1,82.8,693.5,82.7,693.9,82.5L693.9,82.5z"/>
	<path fill="#BCBA5E" d="M701.2,77.6c0-0.8-0.2-1.2-0.6-1.2c-0.5,0-1,0.5-1.5,1.4c-0.5,0.9-0.9,2-1.2,3.1l-0.6,2.7H696l1.3-6
		c0.1-0.3,0.1-0.5,0.1-0.7c0-0.5-0.4-0.7-1.2-0.7H696l0.1-0.6h2.7l-0.3,2.2h0.2c0.4-0.9,0.8-1.5,1.2-1.8c0.4-0.3,0.8-0.5,1.4-0.5
		c0.8,0,1.2,0.3,1.2,1C702.4,77.2,702,77.6,701.2,77.6L701.2,77.6z"/>
	<path fill="#BCBA5E" d="M703.7,75.5h2.8l-1,4.5c-0.2,0.9-0.3,1.5-0.3,1.8c0,0.6,0.2,0.9,0.7,0.9c0.5,0,1.1-0.4,1.7-1.1
		c0.6-0.7,1-1.5,1.2-2.4l0.8-3.7h1.5l-1,4.8c-0.2,0.7-0.2,1.3-0.2,1.7c0,0.5,0.2,0.8,0.5,0.8c0.3,0,0.6-0.1,1-0.3l0.3,0.4
		c-0.6,0.6-1.3,0.8-1.9,0.8c-0.4,0-0.7-0.1-0.9-0.4c-0.2-0.3-0.4-0.6-0.4-1c0-0.3,0-0.6,0.1-0.9h-0.1c-0.5,0.9-1,1.5-1.5,1.8
		c-0.4,0.3-0.9,0.5-1.5,0.5c-1.1,0-1.6-0.6-1.6-1.7c0-0.3,0.1-0.9,0.3-1.7l0.6-2.6c0.1-0.4,0.1-0.7,0.1-0.9c0-0.5-0.4-0.7-1.1-0.7
		h-0.1L703.7,75.5L703.7,75.5z"/>
	<path fill="#BCBA5E" d="M717.5,77.8c0-0.5-0.1-0.9-0.4-1.2c-0.2-0.3-0.6-0.5-1-0.5c-0.5,0-0.8,0.1-1.1,0.4
		c-0.3,0.2-0.4,0.6-0.4,0.9c0,0.3,0.1,0.6,0.4,0.9c0.2,0.2,0.6,0.5,1.2,0.7c1.2,0.5,1.8,1.3,1.8,2.3c0,0.7-0.3,1.3-0.9,1.8
		c-0.6,0.5-1.3,0.7-2.3,0.7c-0.8,0-1.4-0.2-1.8-0.5c-0.4-0.3-0.7-0.7-0.7-1.2c0-0.3,0.1-0.6,0.3-0.7c0.2-0.2,0.4-0.3,0.7-0.3
		c0,0.6,0.2,1.1,0.5,1.5c0.3,0.3,0.7,0.5,1.3,0.5c1.1,0,1.6-0.5,1.6-1.4c0-0.4-0.1-0.7-0.3-0.9c-0.2-0.2-0.6-0.5-1.2-0.8
		c-0.7-0.3-1.2-0.7-1.5-1.1c-0.2-0.4-0.4-0.8-0.4-1.3c0-0.7,0.3-1.2,0.8-1.6c0.5-0.4,1.2-0.6,2.1-0.6c0.7,0,1.3,0.1,1.7,0.4
		c0.4,0.3,0.6,0.6,0.6,1C718.6,77.5,718.2,77.8,717.5,77.8L717.5,77.8z"/>
	<path fill="#BCBA5E" d="M723.5,82.5l0.3,0.6c-0.7,0.5-1.3,0.7-2,0.7c-1.1,0-1.6-0.6-1.6-1.8c0-0.4,0-0.8,0.1-1.3l0.9-4.3H720
		l0.1-0.6c1,0,1.7-0.7,2.3-2.1h0.7l-0.4,1.9h1.8l-0.2,0.9h-1.8l-0.9,4.3c-0.1,0.6-0.2,1-0.2,1.3c0,0.5,0.3,0.8,0.8,0.8
		C722.7,82.8,723.1,82.7,723.5,82.5L723.5,82.5z"/>
	<path fill="#BCBA5E" d="M726.7,79.4h0.1c0.9,0,1.6-0.2,2.2-0.6c0.6-0.4,0.9-1,0.9-1.7c0-0.7-0.3-1-0.9-1c-0.5,0-0.9,0.3-1.4,0.9
		C727.2,77.6,726.9,78.4,726.7,79.4L726.7,79.4z M730.3,81.7c0.1,0.1,0.2,0.2,0.2,0.4c0,0.4-0.2,0.8-0.7,1.1
		c-0.5,0.4-1.1,0.5-1.9,0.5c-0.9,0-1.6-0.3-2.1-0.8c-0.5-0.6-0.8-1.3-0.8-2.3c0-1.3,0.4-2.5,1.3-3.6c0.8-1.1,1.9-1.6,3.2-1.6
		c0.6,0,1.1,0.2,1.5,0.5c0.3,0.3,0.5,0.7,0.5,1.3c0,0.8-0.4,1.5-1.3,2.1c-0.8,0.6-1.9,0.9-3.1,0.9h-0.3c-0.1,0-0.2,0-0.3,0
		c0,0.1,0,0.3,0,0.6c0,1.4,0.6,2,1.7,2C729,82.8,729.7,82.4,730.3,81.7L730.3,81.7z"/>
	<path fill="#BCBA5E" d="M738.1,76.6c-0.2-0.4-0.6-0.5-1.1-0.5c-0.9,0-1.6,0.5-2.2,1.6c-0.6,1.1-0.9,2.2-0.9,3.4
		c0,1.2,0.3,1.7,0.9,1.7c0.5,0,1-0.4,1.6-1.1c0.5-0.7,0.9-1.5,1.1-2.4L738.1,76.6L738.1,76.6z M737.3,81.3L737.3,81.3
		c-0.8,1.6-1.8,2.4-2.9,2.4c-0.6,0-1.1-0.2-1.4-0.7c-0.3-0.5-0.5-1.2-0.5-2c0-1.4,0.4-2.7,1.3-3.8c0.9-1.2,1.9-1.8,3.2-1.8
		c0.6,0,1.1,0.1,1.5,0.4c0.1-0.5,0.1-0.7,0.2-0.8l0.1-0.7c0.1-0.3,0.1-0.6,0.1-0.7c0-0.5-0.4-0.7-1.1-0.7h-0.1l0.1-0.6h2.8l-1.8,8.2
		c-0.1,0.7-0.2,1.2-0.2,1.7c0,0.5,0.2,0.8,0.5,0.8c0.3,0,0.6-0.1,1.1-0.4l0.3,0.4c-0.7,0.6-1.4,0.9-2.1,0.9c-0.8,0-1.2-0.4-1.2-1.2
		C737.1,82.2,737.2,81.8,737.3,81.3L737.3,81.3z"/>
	<path fill="#BCBA5E" d="M745.5,77c-0.1-0.5-0.4-0.8-1-0.8h-0.1l0.1-0.6h2.3l0.7,4.5c0.2,1.1,0.3,2,0.3,2.7h0
		c0.8-0.7,1.4-1.6,1.9-2.5c0.5-1,0.8-1.7,0.8-2.3c0-0.4-0.1-0.6-0.3-0.8c-0.2-0.2-0.4-0.3-0.7-0.3c0-0.4,0.1-0.7,0.3-0.9
		c0.2-0.2,0.4-0.3,0.7-0.3c0.7,0,1,0.5,1,1.4c0,0.9-0.3,2-1,3.2c-0.7,1.2-1.6,2.4-2.7,3.5l-1.4,0.1L745.5,77L745.5,77z"/>
	<path fill="#BCBA5E" d="M754.3,79.4h0.1c0.9,0,1.6-0.2,2.2-0.6c0.6-0.4,0.9-1,0.9-1.7c0-0.7-0.3-1-0.9-1c-0.5,0-0.9,0.3-1.4,0.9
		C754.9,77.6,754.6,78.4,754.3,79.4L754.3,79.4z M758,81.7c0.1,0.1,0.2,0.2,0.2,0.4c0,0.4-0.2,0.8-0.7,1.1c-0.5,0.4-1.1,0.5-1.9,0.5
		c-0.9,0-1.6-0.3-2.1-0.8c-0.5-0.6-0.8-1.3-0.8-2.3c0-1.3,0.4-2.5,1.3-3.6c0.8-1.1,1.9-1.6,3.2-1.6c0.6,0,1.1,0.2,1.5,0.5
		c0.4,0.3,0.5,0.7,0.5,1.3c0,0.8-0.4,1.5-1.3,2.1c-0.8,0.6-1.9,0.9-3.1,0.9h-0.3c-0.1,0-0.2,0-0.3,0c0,0.1,0,0.3,0,0.6
		c0,1.4,0.6,2,1.7,2C756.7,82.8,757.4,82.4,758,81.7L758,81.7z"/>
	<path fill="#BCBA5E" d="M764,82.5l0.3,0.6c-0.7,0.5-1.4,0.7-2,0.7c-1.1,0-1.6-0.6-1.6-1.8c0-0.4,0-0.8,0.1-1.3l0.9-4.3h-1.1
		l0.1-0.6c1,0,1.7-0.7,2.3-2.1h0.7l-0.4,1.9h1.8l-0.2,0.9H763l-0.9,4.3c-0.1,0.6-0.2,1-0.2,1.3c0,0.5,0.3,0.8,0.8,0.8
		C763.1,82.8,763.5,82.7,764,82.5L764,82.5z"/>
	<path fill="#BCBA5E" d="M767.1,79.4h0.1c0.9,0,1.6-0.2,2.2-0.6c0.6-0.4,0.9-1,0.9-1.7c0-0.7-0.3-1-0.9-1c-0.5,0-0.9,0.3-1.4,0.9
		C767.7,77.6,767.3,78.4,767.1,79.4L767.1,79.4z M770.8,81.7c0.1,0.1,0.2,0.2,0.2,0.4c0,0.4-0.2,0.8-0.7,1.1
		c-0.5,0.4-1.1,0.5-1.9,0.5c-0.9,0-1.6-0.3-2.1-0.8c-0.5-0.6-0.8-1.3-0.8-2.3c0-1.3,0.4-2.5,1.3-3.6c0.8-1.1,1.9-1.6,3.2-1.6
		c0.6,0,1.1,0.2,1.5,0.5c0.4,0.3,0.5,0.7,0.5,1.3c0,0.8-0.4,1.5-1.3,2.1c-0.8,0.6-1.9,0.9-3.1,0.9h-0.3c-0.1,0-0.2,0-0.3,0
		c0,0.1,0,0.3,0,0.6c0,1.4,0.6,2,1.7,2C769.5,82.8,770.2,82.4,770.8,81.7L770.8,81.7z"/>
	<path fill="#BCBA5E" d="M778.2,77.6c0-0.8-0.2-1.2-0.6-1.2c-0.5,0-1,0.5-1.5,1.4c-0.5,0.9-0.9,2-1.2,3.1l-0.6,2.7H773l1.3-6
		c0.1-0.3,0.1-0.5,0.1-0.7c0-0.5-0.4-0.7-1.2-0.7H773l0.1-0.6h2.7l-0.3,2.2h0.2c0.4-0.9,0.8-1.5,1.2-1.8c0.4-0.3,0.9-0.5,1.4-0.5
		c0.8,0,1.2,0.3,1.2,1C779.4,77.2,779,77.6,778.2,77.6L778.2,77.6z"/>
	<path fill="#BCBA5E" d="M783,74c-0.6,0-0.8-0.3-0.8-0.8c0-0.3,0.1-0.6,0.2-0.8c0.2-0.2,0.4-0.3,0.7-0.3c0.6,0,0.8,0.3,0.8,0.8
		c0,0.3-0.1,0.6-0.3,0.8C783.5,73.9,783.3,74,783,74L783,74z M780.6,76.2l0.1-0.6h2.7l-1,4.8c-0.1,0.7-0.2,1.3-0.2,1.7
		c0,0.5,0.2,0.8,0.5,0.8c0.3,0,0.7-0.1,1.1-0.4l0.3,0.4c-0.7,0.6-1.4,0.9-2,0.9c-0.4,0-0.7-0.1-0.9-0.4c-0.2-0.3-0.3-0.6-0.3-1
		c0-0.5,0.1-1.2,0.3-2.4l0.6-2.8c0-0.2,0.1-0.3,0.1-0.4c0-0.4-0.3-0.6-0.9-0.6H780.6L780.6,76.2z"/>
	<path fill="#BCBA5E" d="M786.5,83.6h-1.4l1.3-6c0.1-0.3,0.1-0.5,0.1-0.7c0-0.5-0.4-0.7-1-0.7h-0.1l0.1-0.6h2.8l-0.4,1.9h0.1
		c0.8-1.4,1.7-2,2.7-2c1.1,0,1.6,0.6,1.6,1.7c0,0.3-0.1,0.9-0.3,1.7l-0.4,1.8c-0.1,0.6-0.2,1.1-0.2,1.6c0,0.5,0.2,0.7,0.5,0.7
		c0.3,0,0.6-0.1,1-0.3l0.3,0.4c-0.7,0.6-1.3,0.9-1.8,0.9c-0.4,0-0.7-0.1-1-0.4c-0.2-0.3-0.4-0.6-0.4-1.1s0.1-1.1,0.3-2l0.3-1.6
		c0.1-0.6,0.2-1.1,0.2-1.4c0-0.6-0.2-0.9-0.7-0.9c-0.6,0-1.1,0.4-1.7,1.1c-0.6,0.8-1,1.5-1.1,2.3L786.5,83.6L786.5,83.6z"/>
	<path fill="#BCBA5E" d="M799.9,76.6c-0.2-0.4-0.6-0.5-1.1-0.5c-0.9,0-1.6,0.5-2.2,1.6c-0.6,1.1-0.9,2.2-0.9,3.4
		c0,1.2,0.3,1.7,0.9,1.7c0.5,0,1-0.4,1.6-1.1c0.5-0.7,0.9-1.5,1.1-2.4L799.9,76.6L799.9,76.6z M799.1,81.3L799.1,81.3
		c-0.8,1.6-1.8,2.4-2.9,2.4c-0.6,0-1.1-0.2-1.4-0.7c-0.3-0.5-0.5-1.2-0.5-2c0-1.4,0.4-2.7,1.3-3.8c0.9-1.2,1.9-1.8,3.2-1.8
		c0.7,0,1.3,0.2,1.8,0.5l0.7-0.4h0.5l-1,4.8c-0.1,0.7-0.2,1.2-0.2,1.7c0,0.5,0.2,0.8,0.5,0.8c0.3,0,0.6-0.1,1.1-0.4l0.3,0.4
		c-0.7,0.6-1.4,0.9-2.1,0.9c-0.8,0-1.2-0.4-1.2-1.2C798.9,82.2,799,81.8,799.1,81.3L799.1,81.3z"/>
	<path fill="#BCBA5E" d="M808.5,77.6c0-0.8-0.2-1.2-0.6-1.2c-0.5,0-1,0.5-1.5,1.4c-0.5,0.9-0.9,2-1.2,3.1l-0.6,2.7h-1.4l1.3-6
		c0.1-0.3,0.1-0.5,0.1-0.7c0-0.5-0.4-0.7-1.2-0.7h-0.1l0.1-0.6h2.7l-0.3,2.2h0.2c0.4-0.9,0.8-1.5,1.2-1.8c0.4-0.3,0.8-0.5,1.4-0.5
		c0.8,0,1.2,0.3,1.2,1C809.7,77.2,809.3,77.6,808.5,77.6L808.5,77.6z"/>
	<path fill="#BCBA5E" d="M813.3,74c-0.6,0-0.8-0.3-0.8-0.8c0-0.3,0.1-0.6,0.2-0.8c0.2-0.2,0.4-0.3,0.7-0.3c0.6,0,0.8,0.3,0.8,0.8
		c0,0.3-0.1,0.6-0.3,0.8C813.8,73.9,813.5,74,813.3,74L813.3,74z M810.8,76.2l0.1-0.6h2.7l-1,4.8c-0.1,0.7-0.2,1.3-0.2,1.7
		c0,0.5,0.2,0.8,0.5,0.8c0.3,0,0.6-0.1,1.1-0.4l0.3,0.4c-0.7,0.6-1.4,0.9-2,0.9c-0.4,0-0.7-0.1-0.9-0.4c-0.2-0.3-0.3-0.6-0.3-1
		c0-0.5,0.1-1.2,0.3-2.4l0.6-2.8c0-0.2,0.1-0.3,0.1-0.4c0-0.4-0.3-0.6-0.9-0.6H810.8L810.8,76.2z"/>
	<path fill="#BCBA5E" d="M821,76.6c-0.2-0.4-0.6-0.5-1.1-0.5c-0.9,0-1.6,0.5-2.2,1.6c-0.6,1.1-0.9,2.2-0.9,3.4c0,1.2,0.3,1.7,1,1.7
		c0.5,0,1-0.4,1.6-1.1c0.5-0.7,0.9-1.5,1.1-2.4L821,76.6L821,76.6z M820.1,81.3L820.1,81.3c-0.8,1.6-1.8,2.4-2.9,2.4
		c-0.6,0-1.1-0.2-1.4-0.7c-0.3-0.5-0.5-1.2-0.5-2c0-1.4,0.4-2.7,1.3-3.8c0.9-1.2,1.9-1.8,3.2-1.8c0.7,0,1.3,0.2,1.8,0.5l0.7-0.4h0.5
		l-1,4.8c-0.2,0.7-0.2,1.2-0.2,1.7c0,0.5,0.2,0.8,0.5,0.8c0.3,0,0.6-0.1,1.1-0.4l0.3,0.4c-0.7,0.6-1.4,0.9-2.1,0.9
		c-0.8,0-1.2-0.4-1.2-1.2C820,82.2,820,81.8,820.1,81.3L820.1,81.3z"/>
	<path fill="#BCBA5E" d="M825.7,83.6h-1.4l1.3-6c0.1-0.3,0.1-0.5,0.1-0.7c0-0.5-0.4-0.7-1.1-0.7h-0.1l0.1-0.6h2.8l-0.4,1.9h0.2
		c0.8-1.4,1.7-2,2.7-2c1.1,0,1.6,0.6,1.6,1.7c0,0.3-0.1,0.9-0.3,1.7l-0.4,1.8c-0.1,0.6-0.2,1.1-0.2,1.6c0,0.5,0.2,0.7,0.5,0.7
		c0.3,0,0.6-0.1,1-0.3l0.3,0.4c-0.7,0.6-1.3,0.9-1.8,0.9c-0.4,0-0.7-0.1-1-0.4c-0.2-0.3-0.4-0.6-0.4-1.1s0.1-1.1,0.3-2l0.3-1.6
		c0.1-0.6,0.2-1.1,0.2-1.4c0-0.6-0.2-0.9-0.7-0.9c-0.6,0-1.1,0.4-1.7,1.1c-0.6,0.8-1,1.5-1.1,2.3L825.7,83.6L825.7,83.6z"/>
	<path fill="#BCBA5E" d="M841.5,76.4h-1.7l-1.6,7.3c-0.3,1.2-0.6,2.1-1.1,2.7c-0.5,0.6-1.2,0.8-2.1,0.8c-0.3,0-0.6,0-0.9-0.1
		l0.1-0.7c0.3,0.1,0.5,0.1,0.7,0.1c0.5,0,0.9-0.2,1.1-0.6c0.3-0.4,0.5-1.1,0.8-2.1l1.6-7.3H837l0.1-0.5l1.4-0.3l0.2-0.8
		c0.3-1.8,1.3-2.7,2.9-2.7c0.6,0,1.1,0.1,1.5,0.3c0.3,0.2,0.5,0.5,0.5,0.8c0,0.7-0.4,1-1.3,1c0-0.9-0.2-1.4-0.8-1.4
		c-0.4,0-0.7,0.2-0.9,0.5c-0.2,0.3-0.4,0.8-0.5,1.4l-0.2,1h1.7L841.5,76.4L841.5,76.4z"/>
	<path fill="#BCBA5E" d="M844.6,83c0.8,0,1.5-0.5,2-1.5c0.5-1,0.7-2.1,0.7-3.3c0-1.4-0.5-2.1-1.5-2.1c-0.8,0-1.5,0.5-2,1.5
		c-0.5,1-0.8,2.1-0.8,3.3C843.1,82.3,843.6,83,844.6,83L844.6,83z M846,75.4c0.9,0,1.6,0.3,2.1,0.8c0.5,0.5,0.8,1.3,0.8,2.3
		c0,1.3-0.4,2.5-1.2,3.6c-0.8,1.1-1.9,1.6-3.2,1.6c-0.9,0-1.6-0.3-2.1-0.8c-0.5-0.5-0.8-1.3-0.8-2.3c0-1.4,0.4-2.6,1.2-3.6
		C843.6,75.9,844.7,75.4,846,75.4L846,75.4z"/>
	<path fill="#BCBA5E" d="M855.3,77.6c0-0.8-0.2-1.2-0.6-1.2c-0.5,0-1,0.5-1.5,1.4c-0.5,0.9-0.9,2-1.2,3.1l-0.6,2.7h-1.4l1.3-6
		c0.1-0.3,0.1-0.5,0.1-0.7c0-0.5-0.4-0.7-1.2-0.7h-0.1l0.1-0.6h2.7l-0.3,2.2h0.2c0.4-0.9,0.8-1.5,1.2-1.8c0.4-0.3,0.8-0.5,1.4-0.5
		c0.8,0,1.2,0.3,1.2,1C856.6,77.2,856.2,77.6,855.3,77.6L855.3,77.6z"/>
	<path fill="#BCBA5E" d="M863.7,83c0.8,0,1.5-0.5,2-1.5c0.5-1,0.7-2.1,0.7-3.3c0-1.4-0.5-2.1-1.5-2.1c-0.8,0-1.5,0.5-2,1.5
		c-0.5,1-0.8,2.1-0.8,3.3C862.2,82.3,862.7,83,863.7,83L863.7,83z M865.2,75.4c0.9,0,1.6,0.3,2.1,0.8c0.5,0.5,0.8,1.3,0.8,2.3
		c0,1.3-0.4,2.5-1.2,3.6c-0.8,1.1-1.9,1.6-3.2,1.6c-0.9,0-1.6-0.3-2.1-0.8c-0.5-0.5-0.8-1.3-0.8-2.3c0-1.4,0.4-2.6,1.2-3.6
		C862.7,75.9,863.8,75.4,865.2,75.4L865.2,75.4z"/>
	<path fill="#BCBA5E" d="M870.1,77c-0.1-0.5-0.4-0.8-1-0.8h-0.2l0.1-0.6h2.3L872,80c0.2,1.1,0.3,2,0.4,2.7h0
		c0.7-0.7,1.4-1.6,1.9-2.5c0.5-1,0.8-1.7,0.8-2.3c0-0.4-0.1-0.6-0.3-0.8c-0.2-0.2-0.4-0.3-0.7-0.3c0-0.4,0.1-0.7,0.3-0.9
		c0.2-0.2,0.4-0.3,0.7-0.3c0.7,0,1,0.5,1,1.4c0,0.9-0.4,2-1,3.2c-0.7,1.2-1.6,2.4-2.7,3.5l-1.4,0.1L870.1,77L870.1,77z"/>
	<path fill="#BCBA5E" d="M879,79.4h0.2c0.9,0,1.6-0.2,2.2-0.6c0.6-0.4,0.9-1,0.9-1.7c0-0.7-0.3-1-0.9-1c-0.5,0-0.9,0.3-1.4,0.9
		C879.5,77.6,879.2,78.4,879,79.4L879,79.4z M882.6,81.7c0.1,0.1,0.2,0.2,0.2,0.4c0,0.4-0.2,0.8-0.7,1.1c-0.5,0.4-1.1,0.5-1.9,0.5
		c-0.9,0-1.6-0.3-2.1-0.8c-0.5-0.6-0.8-1.3-0.8-2.3c0-1.3,0.4-2.5,1.3-3.6c0.8-1.1,1.9-1.6,3.2-1.6c0.6,0,1.1,0.2,1.5,0.5
		c0.3,0.3,0.5,0.7,0.5,1.3c0,0.8-0.4,1.5-1.3,2.1c-0.8,0.6-1.9,0.9-3.1,0.9h-0.3c-0.1,0-0.2,0-0.3,0c0,0.1,0,0.3,0,0.6
		c0,1.4,0.6,2,1.7,2C881.3,82.8,882,82.4,882.6,81.7L882.6,81.7z"/>
	<path fill="#BCBA5E" d="M890,77.6c0-0.8-0.2-1.2-0.6-1.2c-0.5,0-1,0.5-1.5,1.4c-0.5,0.9-0.9,2-1.2,3.1l-0.6,2.7h-1.4l1.3-6
		c0.1-0.3,0.1-0.5,0.1-0.7c0-0.5-0.4-0.7-1.2-0.7h-0.1l0.1-0.6h2.7l-0.3,2.2h0.2c0.4-0.9,0.8-1.5,1.2-1.8c0.4-0.3,0.8-0.5,1.4-0.5
		c0.8,0,1.2,0.3,1.2,1C891.3,77.2,890.9,77.6,890,77.6L890,77.6z"/>
	<path fill="#BCBA5E" d="M899.9,77c0.2-1.1,0.5-2.1,0.7-2.9c-0.4,0.6-0.9,1.2-1.3,1.7l-3.4,4h3.4L899.9,77L899.9,77z M896.7,83.6
		l0.1-0.6h0.7c0.5,0,0.8-0.1,1-0.3c0.2-0.2,0.4-0.5,0.4-0.8l0.2-1.2h-4.6l0.1-0.6l6.2-7.2h1.5l-1.5,7h1.9l-0.2,0.8h-1.9l-0.3,1.3
		c0,0.2-0.1,0.3-0.1,0.4c0,0.4,0.4,0.6,1.1,0.6h0.3l-0.1,0.6H896.7L896.7,83.6z"/>
	<path fill="#BCBA5E" d="M905,78.3l-0.5-0.1l1.6-5.4h5l-0.4,2.3h-0.6c0-0.4,0-0.6,0-0.7c0-0.2-0.2-0.4-0.7-0.4h-2.9l-1,3.4
		c0.5-0.2,1-0.2,1.4-0.2c1,0,1.8,0.2,2.3,0.7c0.6,0.5,0.8,1.2,0.8,2c0,1.1-0.4,2-1.2,2.7c-0.8,0.7-1.8,1.1-3.1,1.1
		c-1.8,0-2.6-0.5-2.6-1.5c0-0.6,0.4-0.9,1.1-0.9c0,1.1,0.6,1.6,1.6,1.6c0.8,0,1.4-0.3,1.9-0.8c0.5-0.5,0.7-1.2,0.7-2.1
		c0-0.6-0.2-1.2-0.5-1.5c-0.3-0.4-0.8-0.5-1.4-0.5C906.1,78,905.6,78.1,905,78.3L905,78.3z"/>
	<path fill="#BCBA5E" d="M916.3,77c-0.1-0.3-0.2-0.5-0.4-0.6c-0.1-0.1-0.4-0.2-0.7-0.2h-0.1l0.1-0.6h2.2l1.2,4.1
		c0.4,1.3,0.6,2.2,0.6,2.7h0c1.4-2.1,2-3.7,2-5c0-0.5-0.2-0.8-0.7-0.8c0-0.3,0.1-0.6,0.3-0.8c0.2-0.2,0.4-0.3,0.7-0.3
		c0.7,0,1,0.4,1,1.3c0,1.2-0.7,2.9-2,5.1c-1.4,2.2-2.4,3.7-3.3,4.4c-0.8,0.7-1.9,1.1-3.2,1.1c-0.5,0-1-0.1-1.4-0.3l0.2-0.8
		c0.4,0.1,0.7,0.2,1.2,0.2c1.4,0,2.8-0.9,4.2-2.7L916.3,77L916.3,77z"/>
	<path fill="#BCBA5E" d="M925.3,79.4h0.1c0.9,0,1.6-0.2,2.2-0.6c0.6-0.4,0.9-1,0.9-1.7c0-0.7-0.3-1-0.9-1c-0.5,0-0.9,0.3-1.4,0.9
		C925.8,77.6,925.5,78.4,925.3,79.4L925.3,79.4z M928.9,81.7c0.1,0.1,0.2,0.2,0.2,0.4c0,0.4-0.2,0.8-0.7,1.1
		c-0.5,0.4-1.1,0.5-1.9,0.5c-0.9,0-1.6-0.3-2.1-0.8c-0.5-0.6-0.8-1.3-0.8-2.3c0-1.3,0.4-2.5,1.3-3.6c0.8-1.1,1.9-1.6,3.2-1.6
		c0.6,0,1.1,0.2,1.5,0.5c0.3,0.3,0.5,0.7,0.5,1.3c0,0.8-0.4,1.5-1.3,2.1c-0.8,0.6-1.9,0.9-3.1,0.9h-0.3c-0.1,0-0.2,0-0.3,0
		c0,0.1,0,0.3,0,0.6c0,1.4,0.6,2,1.7,2C927.6,82.8,928.3,82.4,928.9,81.7L928.9,81.7z"/>
	<path fill="#BCBA5E" d="M936.7,76.6c-0.2-0.4-0.6-0.5-1.1-0.5c-0.9,0-1.6,0.5-2.2,1.6c-0.6,1.1-0.9,2.2-0.9,3.4
		c0,1.2,0.3,1.7,0.9,1.7c0.5,0,1-0.4,1.6-1.1c0.5-0.7,0.9-1.5,1.1-2.4L936.7,76.6L936.7,76.6z M935.9,81.3h-0.1
		c-0.7,1.6-1.7,2.4-2.8,2.4c-0.6,0-1.1-0.2-1.4-0.7c-0.3-0.5-0.5-1.2-0.5-2c0-1.4,0.4-2.7,1.3-3.8c0.9-1.2,1.9-1.8,3.2-1.8
		c0.7,0,1.3,0.2,1.8,0.5l0.7-0.4h0.5l-1,4.8c-0.1,0.7-0.2,1.2-0.2,1.7c0,0.5,0.2,0.8,0.5,0.8c0.3,0,0.6-0.1,1.1-0.4l0.3,0.4
		c-0.7,0.6-1.4,0.9-2.1,0.9c-0.8,0-1.2-0.4-1.2-1.2C935.7,82.2,935.7,81.8,935.9,81.3L935.9,81.3z"/>
	<path fill="#BCBA5E" d="M945.2,77.6c0-0.8-0.2-1.2-0.6-1.2c-0.5,0-1,0.5-1.5,1.4c-0.5,0.9-0.9,2-1.2,3.1l-0.6,2.7H940l1.3-6
		c0.1-0.3,0.1-0.5,0.1-0.7c0-0.5-0.4-0.7-1.2-0.7H940l0.1-0.6h2.7l-0.3,2.2h0.1c0.4-0.9,0.8-1.5,1.2-1.8c0.4-0.3,0.9-0.5,1.4-0.5
		c0.8,0,1.2,0.3,1.2,1C946.5,77.2,946.1,77.6,945.2,77.6L945.2,77.6z"/>
	<path fill="#BCBA5E" d="M951.9,77.8c0-0.5-0.1-0.9-0.4-1.2c-0.2-0.3-0.6-0.5-1-0.5c-0.4,0-0.8,0.1-1.1,0.4
		c-0.3,0.2-0.4,0.6-0.4,0.9c0,0.3,0.1,0.6,0.4,0.9c0.2,0.2,0.6,0.5,1.2,0.7c1.2,0.5,1.8,1.3,1.8,2.3c0,0.7-0.3,1.3-0.9,1.8
		c-0.6,0.5-1.3,0.7-2.3,0.7c-0.8,0-1.4-0.2-1.8-0.5c-0.5-0.3-0.7-0.7-0.7-1.2c0-0.3,0.1-0.6,0.3-0.7c0.2-0.2,0.4-0.3,0.7-0.3
		c0,0.6,0.2,1.1,0.5,1.5c0.3,0.3,0.7,0.5,1.3,0.5c1.1,0,1.6-0.5,1.6-1.4c0-0.4-0.1-0.7-0.3-0.9c-0.2-0.2-0.6-0.5-1.2-0.8
		c-0.7-0.3-1.2-0.7-1.5-1.1c-0.3-0.4-0.4-0.8-0.4-1.3c0-0.7,0.3-1.2,0.8-1.6c0.5-0.4,1.2-0.6,2.1-0.6c0.7,0,1.3,0.1,1.7,0.4
		c0.4,0.3,0.6,0.6,0.6,1C953,77.5,952.6,77.8,951.9,77.8L951.9,77.8z"/>
	<path fill="#BBBA5E" d="M607.3,84c0.3,0.7,0.7,2.3,1.2,3.3c1.6-0.6,3.9-0.8,3.9-0.8s-0.2,2.4-1.7,3.6c1.7,2.1,4.2,5.2,4.6,5.8
		c0.2,0.4,1,2.3,2.7,5.6V84H607.3L607.3,84z"/>
	<path fill="#BBBA5E" d="M564.2,90.1c-2,1.4-3.5,1.8-4.7,1c-1.5-1.1-0.8-1.8,1.3-3.3c1.5-1,5.3-1.3,5.3-1.3S565.9,88.9,564.2,90.1
		L564.2,90.1z M564.2,95.6c-2,1.4-3.5,1.8-4.7,1c-1.5-1.1-0.8-1.8,1.3-3.3c1.5-1,5.3-1.3,5.3-1.3S565.9,94.5,564.2,95.6L564.2,95.6z
		 M564.2,101.1c-2,1.4-3.5,1.8-4.7,1c-1.5-1.1-0.8-1.8,1.3-3.3c1.5-1,5.3-1.3,5.3-1.3S565.9,99.9,564.2,101.1L564.2,101.1z
		 M564.2,106.8c-2,1.4-3.5,1.8-4.7,1c-1.5-1.1-0.8-1.8,1.3-3.3c1.5-1,5.3-1.3,5.3-1.3S565.9,105.6,564.2,106.8L564.2,106.8z
		 M564.2,112.5c-2,1.4-3.5,1.8-4.7,0.9c-1.5-1.1-0.8-1.8,1.3-3.3c1.5-1,5.3-1.3,5.3-1.3S565.9,111.4,564.2,112.5L564.2,112.5z
		 M564.2,118.4c-2,1.4-3.5,1.8-4.7,1c-1.5-1.1-0.8-1.8,1.3-3.3c1.5-1,5.3-1.3,5.3-1.3S565.9,117.3,564.2,118.4L564.2,118.4z
		 M564.2,124.1c-2,1.4-3.5,1.8-4.7,1c-1.5-1.1-0.8-1.8,1.3-3.3c1.5-1,5.3-1.3,5.3-1.3S565.9,122.9,564.2,124.1L564.2,124.1z
		 M564.2,129.9c-2,1.4-3.5,1.8-4.7,1c-1.5-1.1-0.8-1.8,1.3-3.3c1.5-1,5.3-1.3,5.3-1.3S565.9,128.7,564.2,129.9L564.2,129.9z
		 M556.3,91c-1.3,0.9-2.7,0.4-4.7-1c-1.7-1.2-1.9-3.6-1.9-3.6s3.8,0.3,5.3,1.3C557.1,89.2,557.8,90,556.3,91L556.3,91z M556.3,96.6
		c-1.3,0.9-2.7,0.4-4.7-1c-1.7-1.2-1.9-3.6-1.9-3.6s3.8,0.3,5.3,1.3C557.1,94.8,557.8,95.5,556.3,96.6L556.3,96.6z M556.3,102
		c-1.3,0.9-2.7,0.4-4.7-1c-1.7-1.2-1.9-3.6-1.9-3.6s3.8,0.3,5.3,1.3C557.1,100.2,557.8,101,556.3,102L556.3,102z M556.3,107.7
		c-1.3,0.9-2.7,0.4-4.7-1c-1.7-1.2-1.9-3.6-1.9-3.6s3.8,0.3,5.3,1.3C557.1,105.9,557.8,106.7,556.3,107.7L556.3,107.7z M556.3,113.5
		c-1.3,0.9-2.7,0.4-4.7-0.9c-1.7-1.2-1.9-3.6-1.9-3.6s3.8,0.3,5.3,1.3C557.1,111.7,557.8,112.4,556.3,113.5L556.3,113.5z
		 M556.3,119.4c-1.3,0.9-2.7,0.4-4.7-1c-1.7-1.2-1.9-3.6-1.9-3.6s3.8,0.3,5.3,1.3C557.1,117.6,557.8,118.3,556.3,119.4L556.3,119.4z
		 M556.3,125.1c-1.3,0.9-2.7,0.4-4.7-1c-1.7-1.2-1.9-3.6-1.9-3.6s3.8,0.3,5.3,1.3C557.1,123.2,557.8,124,556.3,125.1L556.3,125.1z
		 M556.3,130.8c-1.3,0.9-2.7,0.4-4.7-1c-1.7-1.2-1.9-3.6-1.9-3.6s3.8,0.3,5.3,1.3C557.1,129,557.8,129.8,556.3,130.8L556.3,130.8z
		 M546.2,84v52h23.1V84H546.2L546.2,84z"/>
	<path fill="#BBBA5E" d="M538.7,90.1c-2,1.4-3.5,1.8-4.7,1c-1.5-1.1-0.8-1.8,1.3-3.3c1.5-1,5.3-1.3,5.3-1.3S540.4,88.9,538.7,90.1
		L538.7,90.1z M538.7,95.6c-2,1.4-3.5,1.8-4.7,1c-1.5-1.1-0.8-1.8,1.3-3.3c1.5-1,5.3-1.3,5.3-1.3S540.4,94.5,538.7,95.6L538.7,95.6z
		 M538.7,101.1c-2,1.4-3.5,1.8-4.7,1c-1.5-1.1-0.8-1.8,1.3-3.3c1.5-1,5.3-1.3,5.3-1.3S540.4,99.9,538.7,101.1L538.7,101.1z
		 M538.7,106.8c-2,1.4-3.5,1.8-4.7,1c-1.5-1.1-0.8-1.8,1.3-3.3c1.5-1,5.3-1.3,5.3-1.3S540.4,105.6,538.7,106.8L538.7,106.8z
		 M538.7,112.5c-2,1.4-3.5,1.8-4.7,0.9c-1.5-1.1-0.8-1.8,1.3-3.3c1.5-1,5.3-1.3,5.3-1.3S540.4,111.4,538.7,112.5L538.7,112.5z
		 M538.7,118.4c-2,1.4-3.5,1.8-4.7,1c-1.5-1.1-0.8-1.8,1.3-3.3c1.5-1,5.3-1.3,5.3-1.3S540.4,117.3,538.7,118.4L538.7,118.4z
		 M538.7,124.1c-2,1.4-3.5,1.8-4.7,1c-1.5-1.1-0.8-1.8,1.3-3.3c1.5-1,5.3-1.3,5.3-1.3S540.4,122.9,538.7,124.1L538.7,124.1z
		 M538.7,129.9c-2,1.4-3.5,1.8-4.7,1c-1.5-1.1-0.8-1.8,1.3-3.3c1.5-1,5.3-1.3,5.3-1.3S540.4,128.7,538.7,129.9L538.7,129.9z
		 M530.7,91c-1.3,0.9-2.7,0.4-4.7-1c-1.7-1.2-1.9-3.6-1.9-3.6s3.8,0.3,5.3,1.3C531.5,89.2,532.2,90,530.7,91L530.7,91z M530.7,96.6
		c-1.3,0.9-2.7,0.4-4.7-1c-1.7-1.2-1.9-3.6-1.9-3.6s3.8,0.3,5.3,1.3C531.5,94.8,532.2,95.5,530.7,96.6L530.7,96.6z M530.7,102
		c-1.3,0.9-2.7,0.4-4.7-1c-1.7-1.2-1.9-3.6-1.9-3.6s3.8,0.3,5.3,1.3C531.5,100.2,532.2,101,530.7,102L530.7,102z M530.7,107.7
		c-1.3,0.9-2.7,0.4-4.7-1c-1.7-1.2-1.9-3.6-1.9-3.6s3.8,0.3,5.3,1.3C531.5,105.9,532.2,106.7,530.7,107.7L530.7,107.7z M530.7,113.5
		c-1.3,0.9-2.7,0.4-4.7-0.9c-1.7-1.2-1.9-3.6-1.9-3.6s3.8,0.3,5.3,1.3C531.5,111.7,532.2,112.4,530.7,113.5L530.7,113.5z
		 M530.7,119.4c-1.3,0.9-2.7,0.4-4.7-1c-1.7-1.2-1.9-3.6-1.9-3.6s3.8,0.3,5.3,1.3C531.5,117.6,532.2,118.3,530.7,119.4L530.7,119.4z
		 M530.7,125.1c-1.3,0.9-2.7,0.4-4.7-1c-1.7-1.2-1.9-3.6-1.9-3.6s3.8,0.3,5.3,1.3C531.5,123.2,532.2,124,530.7,125.1L530.7,125.1z
		 M530.7,130.8c-1.3,0.9-2.7,0.4-4.7-1c-1.7-1.2-1.9-3.6-1.9-3.6s3.8,0.3,5.3,1.3C531.5,129,532.2,129.8,530.7,130.8L530.7,130.8z
		 M520.6,84v53.7h23.1V84H520.6L520.6,84z"/>
	<path fill="#BBBA5E" d="M578.9,87.7c2,1.5,2.6,2.2,1.2,3.3c-1.2,0.9-2.5,0.4-4.3-1c-1.5-1.2-1.7-3.6-1.7-3.6S577.5,86.7,578.9,87.7
		L578.9,87.7z M576.1,136.3c0,0,2-3.5,3.8-3.5c1.9,0,2.5,0.4,2.5,0.4s-0.9-1.6-1.7-3.2c-0.1,0.3-0.3,0.6-0.7,0.9
		c-1.2,0.9-2.5,0.4-4.3-1c-1.5-1.2-1.7-3.6-1.7-3.6s3.5,0.3,4.8,1.3c0.6,0.5,1.1,0.8,1.4,1.2c-0.1-0.2-0.1-0.5-0.2-0.7
		c-0.2-0.7-0.4-1.6-0.6-2.7c-1,0.4-2.2-0.1-3.7-1.3c-1.5-1.2-1.7-3.6-1.7-3.6s3.5,0.3,4.8,1.3c0,0,0.1,0.1,0.1,0.1
		c0-0.8,0-1.5,0.2-2c-1,0.2-2-0.3-3.4-1.4c-1.5-1.2-1.7-3.6-1.7-3.6s3.5,0.3,4.8,1.3c0.4,0.3,0.8,0.6,1,0.8c0-0.2-0.1-0.2-0.1-0.2
		s-0.7-1.5-1-2.7c-0.9,0-1.8-0.5-3-1.4c-1.5-1.2-1.7-3.6-1.7-3.6s3.4,0.3,4.8,1.3c0.1-0.6,0.1-1.3,0.2-2c-0.9,0.1-2-0.4-3.3-1.4
		c-1.5-1.2-1.7-3.6-1.7-3.6s3.5,0.3,4.8,1.3c0.2,0.2,0.4,0.3,0.6,0.4c0.1-0.9,0.2-1.7,0.3-2.6c-1.1,0.6-2.3,0.1-4-1.1
		c-1.5-1.2-1.7-3.6-1.7-3.6s3.5,0.3,4.8,1.3c0.5,0.4,0.9,0.7,1.2,1c0.2-1.3,0.4-2.6,0.6-3.8c-0.1,0.2-0.3,0.4-0.6,0.6
		c-1.2,0.9-2.5,0.4-4.3-1c-1.5-1.2-1.7-3.6-1.7-3.6s3.5,0.3,4.8,1.3c1.1,0.8,1.8,1.4,1.9,2c0.1-0.5,0.2-1.1,0.3-1.5
		c0.8-4.2,1.3-7.1,2.7-9.7L570.9,84v50.7C572.7,135.1,574.5,135.7,576.1,136.3L576.1,136.3z"/>
	<path fill="#13545F" d="M555.2,138c0.4,0,1.4,0.7,2.1,0.7c0.4,0,1.1-0.3,1.7-0.5l-1.4-0.7L555.2,138C555.2,138,555.2,138,555.2,138
		L555.2,138z"/>
	<path fill="#13545F" d="M544.3,44.6c0.7-0.3,2.1-0.3,2.1-0.3l0.3,2.5l-1.4,3.2l-5.3,0.6C540,50.6,543.6,44.8,544.3,44.6L544.3,44.6
		z M551.2,36.8l1.8-0.2l2.8,3.6c0,0-3.7-1.2-5.5-0.8c-1.7,0.4-2.8,3.2-2.8,3.2l-1.2,0.1L551.2,36.8L551.2,36.8z M554.1,49l-7.1,0.8
		l1.2-3.1l5.7-0.7l1.8,1.3L554.1,49L554.1,49z M557.9,42.9l4.3,5.1l-1.5,0.2l-4.2-2.5L557.9,42.9L557.9,42.9z M564.5,37.5l3.7,2.6
		l2.4,6.9l-6.9,0.8l-5-6.6C558.7,38.8,564.5,37.5,564.5,37.5L564.5,37.5z M587.2,37.9l0.7,1l1.3,3.1l-3,0.4
		C586.1,42.4,587.9,38.9,587.2,37.9L587.2,37.9z M621.3,138c-0.6,0.9-1.7,2.4-2.8,3.6c-0.4,0.5-1.5,1.5-1.7,1.7
		c-0.6,0.7-1.2,1.2-1.6,1.2c-0.9,0-1.4-0.6-1.5-0.7c0,0-0.1,0-0.1,0.1c-0.5,0.7-3.8,4.5-11.4,5c-8.3,0.5-23.7-3.1-25.7-4
		c-2-0.9-12.3-4.3-13.4-4.5c-1.1-0.1-3.8,0.4-3.8,0.4v-1c0,0-1.3,1-2,1c-0.7,0-2-0.7-2.4-0.9c0,0,0.9,0.9,1.5,1.3
		c0.5,0.3-1.9,3.6-4.4,3.5l0.4,0.9c0,0-3.3,0.7-4.3,0.7c-0.8,0-3.7,0-5.7-0.6c-0.6-0.2-1.5-0.6-2.2-1.5c-0.8-1-1.5-2.4-1.1-4.1
		c0.1,0.6,0.4,1.2,0.7,1.7c0.7,1.1,1.7,1.8,2.1,1.9c1.9,0.7,5.3,0.7,6.2,0.7c1,0,4.3-0.7,4.3-0.7l-0.4-0.9c1.9,0,3.3-1.5,2.7-1.9
		c-0.6-0.4-2.2-1.4-2.2-1.4l0.7-0.4c0,0-0.4-0.3-0.9-0.7l-10.5,1.9l-1.9-2.8h-19.5V70.4l-0.1-9.4c0-0.3,0-0.5,0-0.8
		c1.2-0.6,2.7-1.3,4.4-2.1c4.1-2.1,8-4.5,10.3-4.9c2.3-0.4,18-2.6,18-2.6s1.9-0.8,3.4-1.8c1.5-1.1,4.1,1.1,4.1,1.1l0.2,1.6
		c0,0,0,2.7-4.6,4c0,0-0.9-3.5-2.3-3.1c-1.4,0.4-5.6-0.8-8.1,4.4l-0.9,1.9c0,0,1.7,2.3,5.2,1.7c3.5-0.6,6.1-1.5,5.8-3.9
		c0,0,3.8-1.2,5-2.8l0.2,2l-2.4,2.3c0,0-5.3,2.2-6.3,4.7c-1,2.4-1.9,4-1.5,7c0.4,3,0.5,4.2,0.5,4.2s4.3-1.6,6-3.8
		c1.7-2.2,2.6-6.8,1.9-9.5l-0.7-1.3l2.6-2.6l1.3,0.2l0.3,2.3c0,0-1.5-0.4-1.1,2.5c0.3,2.8,1.3,8.1,7.8,8.2c0,0,4.6-1.8,1.7-5.6
		c-3-3.8-6.7-5.3-6.7-5.3s-1-2-1-2.7c-0.1-0.7-0.8-2.1-0.8-2.1l-0.9-4.6l22-3.5c0,0,2.3,3,6.2,4.1c3.9,1.2,6.7-2.6,6.7-2.6
		s-3.1-1.8-5.5-2.2c-2.4-0.4-5.8-0.2-5.8-0.2s1.8-1.1,3.1-1.4c1.2-0.3,2.9,0.4,4.6,0.7c1.7,0.3,3.8,1.7,4.7,2.1
		c0.9,0.4,2.8,3.8,4.9,3.4c2.1-0.4,5.7-3.5,5.7-3.5l-1.3-1.6c0,0-2.1-2.7-12.2-1.8l-3.7,0.4c0,0,0.7-2,1.7-2.3
		c1-0.3,7.7-1.6,9.2-2.9c1.5-1.3,2.9-6.1,2.9-6.1l-1.8,0.2c0,0-8.5,6.9-10.7,7.7l-1.4,1.4l-0.7-1.7c0,0,1.3-2.5,2.8-4.8
		c1.5-2.3,0.8-5.6,0.2-7c-0.5-1.4-1.5-2.3-1.5-2.3s-5.3,3.9-5.2,5.8c0.1,2-0.3,3.6-0.3,3.6s-1.3,0-2.1,0.4c-0.8,0.5-2.1,2-1.8,3.3
		c0.3,1.2,1.3,6.3-0.9,6.4c-2.1,0.1-8,0.6-8,0.6l-2.4-2l1.6-1.6c0,0,1.4-1.4,2.7-1.7c1.2-0.3,4.3-1.2,5.2-3.1
		c0.9-1.9,0.9-2.6-0.8-2.6c-1.8,0-6.4,2.2-7.7,5c-1.3,2.8-1.3,2.8-1.3,2.8l-1.2-2.5c0,0-0.1-2.1,0.4-2.4c0.5-0.2,4.3-1.8,5.8-2.8
		c1.5-1.1,2.6-5.5,1.8-7.4c-0.8-1.9-1-1-3.5-0.5c-2.5,0.5-5,6-4.8,6.5c0.2,0.5-0.8,1.2-0.8,1.2s0.2-3.2,0-4.8
		c-0.2-1.6,0.5-6.3-0.6-8.4c-1.1-2-3.1-5-6.3-3c-3.2,2-0.8,6.9,0.2,8.9c1,2,4.9,3.2,5.2,4.2s0.4,3.7,0.4,3.7l-0.9,0.1
		c0,0-1-2-1.1-2.9c-0.1-0.9-2.4-2.2-3.5-2.1c-1.1,0.1-3.6,1.7-3.6,3.1c0,1.4-0.8,7.3-0.8,7.3l-3.3-4.8c0,0,1-1.9,2.2-2.9
		c1.1-1,5.4-9.3,2.5-11.5c-2.9-2.2-5.9-0.7-6.5,0.8c-0.5,1.4-1.7,4.9,0.9,10.6l-0.1,1.1l-0.9,0.1c0,0-2.3-2.6-2.3-4.6
		c-0.1-2-0.1-5.8-4.5-6.4c-4.4-0.6-5.4,1.5-4.6,3.4c0.8,1.9,6.1,6.1,9.7,7.8c0,0-5.2-0.3-6.4-1.2c-1.2-0.9-6.2-0.7-5.2,1.7
		c1,2.4,2.4,6.5,7.6,4.8l-8.1,10.3c0,0-5.1,1.8-5.8,2.1c-0.7,0.3-6.6,2.5-8.2,3c-0.7,0.3-2.4,0.7-3.9,1.2
		c2.6-24.1,22.9-42.9,47.7-42.9c26.5,0,47.9,21.6,47.9,48.1v37c2.5,5.3,4.1,13.1,4.5,15.9l0.4,0V104V61c0-29-23.7-52.6-52.7-52.6
		c-29,0-52.7,23.8-52.7,52.8l-0.1,76.4H509v22.3h118.9v-22.3h-6.3C621.5,137.6,621.4,137.8,621.3,138L621.3,138z"/>
	<path fill="#13545F" d="M535,8h-25.1v38.6l0.1-0.2C510,46.4,511.2,24.5,535,8L535,8z"/>
	<path fill="#13545F" d="M602.7,8c23.7,16.5,25,38.4,25,38.4l0.2,0.2V8H602.7L602.7,8z"/>
	<path fill="#676767" d="M581.5,55.3c0,0,0.6,0.7,1.1,1c0.5,0.2,2.1,0.7,2.6,0.9c0.5,0.1,2.1,1.6,3.3,3.7c0,0,2.4-0.6,3.4-0.7
		c1-0.1,2.9,0,2.9,0s2.4-2.6,3-2.9c0.6-0.2,1-2.1,1.6-2c0.6,0.1,1.5,1.4,1.7,1.7c0.3,0.4,1,3.1,1.1,3.8c0.1,0.7-0.7,3.6-0.6,4.6
		c0.1,1,0.2,2.1,0.6,3.2c0.5,1.1,0.9,5,0.7,5.6c-0.1,0.6-1.2,2.9-0.7,3.4c0.5,0.5,3,5.6,3.4,5.8c0.4,0.2,1,2.8,1.6,4
		c0.6,1.1,0.9,2.4,1.6,3c0.7,0.6,5.6,6.7,6.1,7.6c0.5,0.9,4.8,9.2,5.2,23.7c0,0,1.1-0.4,1.7,0c0.6,0.4,1.5,2.9,1.4,5.1
		c-0.1,2.2-2.4,9.2-3.4,10.7c-1,1.5-3.6,5.1-4.6,5.1c-1,0-1.5-0.7-1.5-0.7s-3.1,4.6-11.4,5.1c-8.3,0.5-23.7-3.1-25.7-4
		c-2-0.9-12.2-4.3-13.3-4.5c-1.1-0.1-3.6,0.4-3.6,0.4l0.4-1c0,0-2,1.1-2.7,1.1c-0.7,0-1.8-0.9-2.2-0.9c-0.4,0-6.1-2.9-10-0.4
		c0,0,3.6-0.4,5.2,0c1.6,0.4,2.9,1.5,2.9,1.5l-0.7,0.4c0,0,1.6,1,2.2,1.4c0.6,0.4-0.9,1.9-2.7,1.9l0.4,0.9c0,0-3.3,0.7-4.3,0.7
		c-0.8,0-4.3,0-6.2-0.7c-0.4-0.1-1.4-0.8-2.1-1.9c-0.8-1.3-1.3-2.8-0.2-4.7c1.6-2.7,6.1-4.8,14.8-4.5c8.7,0.4,15.5,1.5,21.7,3.7
		c0,0,2-3.5,3.8-3.5c1.9,0,2.5,0.4,2.5,0.4s-1.9-3.1-2.4-5.1c-0.5-2-1.7-6.6-0.7-8.7c1-2.1,0.5-2.7,0.5-2.7s-1.2-2.7-1.2-3.7
		c0-1,1.2-12.3,2.5-19.2c1-5.3,1.5-8.7,4-11.6c0.8-0.9-1.1-2.1-1.1-2.1c-0.9-1.3-3.2-2.4-3.8-4.3c-0.2-0.8-1.2-4.3,0-5.5
		c1.1-1.2,1.6-4.2,2.2-4.6c0.6-0.4,0.6-1.5,0.6-1.5s-1.9-2.9-1.9-3.8c0-1-0.7-2.7-0.6-3.5C580.6,56,581.5,55.3,581.5,55.3
		L581.5,55.3z"/>
</g>
</svg>
