<?xml version="1.0" encoding="utf-8"?>
<!-- Generator: Adobe Illustrator 18.1.1, SVG Export Plug-In . SVG Version: 6.00 Build 0)  -->
<!DOCTYPE svg PUBLIC "-//W3C//DTD SVG 1.1//EN" "http://www.w3.org/Graphics/SVG/1.1/DTD/svg11.dtd">
<svg version="1.1" id="Layer_1" xmlns="http://www.w3.org/2000/svg" xmlns:xlink="http://www.w3.org/1999/xlink" x="0px" y="0px"
	 viewBox="0 0 200 58" enable-background="new 0 0 200 58" xml:space="preserve">
<g>
	<g>
		<path fill="#BBBA5E" d="M8.6,3.7v11.4h9.5V17H8.6v8.4c0,0.6,0.1,1.1,0.3,1.5c0.2,0.4,0.4,0.7,0.7,0.9c0.3,0.2,0.6,0.3,1,0.4
			c0.4,0.1,0.8,0.1,1.2,0.1h1.3v1.7H0.9v-1.7h0.5c0.4,0,0.9,0,1.2-0.1c0.4-0.1,0.7-0.2,1-0.4C4,27.6,4.2,27.3,4.4,27
			c0.2-0.4,0.3-0.8,0.3-1.4V6.1c0-0.6-0.1-1-0.3-1.4C4.2,4.3,4,4.1,3.7,3.9C3.4,3.7,3,3.6,2.6,3.5C2.3,3.4,1.8,3.4,1.4,3.4H0.9V1.8
			h19.9l0.2,6.9h-2L18.7,7c0-0.4-0.2-0.9-0.3-1.3c-0.2-0.4-0.4-0.7-0.7-1c-0.3-0.3-0.7-0.5-1.1-0.7c-0.4-0.2-1-0.3-1.6-0.3H8.6z"/>
		<path fill="#BBBA5E" d="M41.2,19.3c0,3.7-0.8,6.5-2.4,8.3c-1.6,1.8-3.9,2.7-6.9,2.7c-1.4,0-2.7-0.2-3.8-0.7
			c-1.1-0.5-2.1-1.1-2.9-2c-0.8-0.9-1.4-2.1-1.8-3.4c-0.4-1.4-0.6-3-0.6-4.8c0-3.7,0.8-6.4,2.3-8.2c1.6-1.8,3.9-2.7,6.9-2.7
			c1.4,0,2.7,0.2,3.8,0.7c1.1,0.4,2.1,1.1,2.9,2c0.8,0.9,1.4,2,1.8,3.4C41,15.8,41.2,17.4,41.2,19.3z M26.6,19.3
			c0,1.5,0.1,2.7,0.3,3.9c0.2,1.1,0.5,2,0.9,2.8c0.4,0.8,1,1.3,1.7,1.7c0.7,0.4,1.5,0.6,2.5,0.6c1,0,1.8-0.2,2.5-0.6
			c0.7-0.4,1.2-0.9,1.7-1.7c0.4-0.7,0.7-1.7,0.9-2.8c0.2-1.1,0.3-2.4,0.3-3.9c0-1.5-0.1-2.8-0.3-3.8c-0.2-1.1-0.5-2-0.9-2.8
			c-0.4-0.7-1-1.3-1.7-1.7c-0.7-0.4-1.5-0.6-2.5-0.6c-1,0-1.8,0.2-2.5,0.6c-0.7,0.4-1.2,0.9-1.7,1.7c-0.4,0.7-0.7,1.7-0.9,2.8
			C26.7,16.5,26.6,17.8,26.6,19.3z"/>
		<path fill="#BBBA5E" d="M55.8,29.9H44.4v-1.7h0.1c0.4,0,0.9,0,1.3-0.1c0.4-0.1,0.7-0.2,1-0.4c0.3-0.2,0.5-0.5,0.7-0.9
			c0.2-0.4,0.3-0.9,0.3-1.5V13.1c0-0.6-0.1-1-0.3-1.4c-0.2-0.3-0.4-0.6-0.7-0.8c-0.3-0.2-0.6-0.3-1-0.4c-0.4-0.1-0.8-0.1-1.2-0.1
			h-0.1V8.8h6.1l0.8,3.9h0.2c0.3-0.6,0.5-1.1,0.8-1.7c0.3-0.5,0.6-1,1-1.4c0.4-0.4,0.9-0.7,1.4-0.9c0.6-0.2,1.3-0.3,2.2-0.3
			c1.4,0,2.5,0.3,3.2,0.8c0.7,0.5,1.1,1.2,1.1,2.1c0,0.4-0.1,0.8-0.2,1.1c-0.1,0.4-0.4,0.6-0.6,0.9c-0.3,0.3-0.7,0.4-1.1,0.6
			c-0.5,0.1-1,0.2-1.7,0.2c0-1.1-0.2-1.9-0.5-2.4c-0.3-0.5-0.8-0.7-1.6-0.7c-0.5,0-0.9,0.1-1.3,0.4c-0.4,0.3-0.7,0.6-1,1.1
			c-0.3,0.5-0.5,1-0.7,1.6c-0.2,0.6-0.4,1.2-0.5,1.8c-0.1,0.6-0.2,1.2-0.3,1.9c-0.1,0.6-0.1,1.2-0.1,1.7v6.2c0,0.6,0.1,1,0.3,1.4
			c0.2,0.3,0.4,0.6,0.7,0.8c0.3,0.2,0.6,0.3,1,0.4c0.4,0.1,0.8,0.1,1.2,0.1h1.1V29.9z"/>
		<path fill="#BBBA5E" d="M73.3,30.3c-1.4,0-2.7-0.2-3.8-0.7c-1.1-0.5-2.1-1.2-2.9-2.1c-0.8-0.9-1.4-2.1-1.8-3.4
			c-0.4-1.3-0.6-2.9-0.6-4.6c0-3.7,0.8-6.5,2.3-8.3c1.5-1.9,3.7-2.8,6.5-2.8c1.3,0,2.4,0.2,3.4,0.6c1,0.4,1.9,1,2.6,1.8
			c0.7,0.8,1.2,1.8,1.6,2.9c0.4,1.2,0.6,2.5,0.6,4.1v1.8H68c0,1.4,0.2,2.7,0.4,3.7c0.3,1,0.6,1.9,1.1,2.5c0.5,0.7,1.1,1.2,1.8,1.5
			c0.7,0.3,1.5,0.5,2.5,0.5c0.7,0,1.3-0.1,1.9-0.2c0.6-0.2,1.1-0.4,1.6-0.6c0.5-0.3,0.9-0.5,1.3-0.9c0.4-0.3,0.7-0.7,0.9-1
			c0.2,0.1,0.3,0.2,0.5,0.5c0.2,0.2,0.2,0.5,0.2,0.9c0,0.4-0.1,0.8-0.4,1.3c-0.3,0.5-0.7,0.9-1.3,1.3c-0.6,0.4-1.3,0.7-2.2,1
			C75.5,30.1,74.5,30.3,73.3,30.3z M72.8,10.5c-1.5,0-2.6,0.6-3.4,1.8c-0.8,1.2-1.3,2.9-1.4,5.2h9.1c0-1-0.1-2-0.2-2.8
			c-0.2-0.9-0.4-1.6-0.7-2.2c-0.3-0.6-0.8-1.1-1.3-1.4C74.3,10.7,73.6,10.5,72.8,10.5z"/>
		<path fill="#BBBA5E" d="M91.6,30.3c-1,0-1.9-0.1-2.7-0.3c-0.8-0.2-1.5-0.4-2-0.8c-0.6-0.4-1-0.8-1.3-1.3c-0.3-0.5-0.5-1.1-0.5-1.8
			c0-0.5,0.1-1,0.3-1.3c0.2-0.4,0.4-0.6,0.6-0.8c0.3-0.2,0.5-0.4,0.8-0.4c0.3-0.1,0.5-0.1,0.8-0.1c0,0.7,0.1,1.3,0.2,1.9
			c0.1,0.6,0.4,1.1,0.7,1.6c0.3,0.5,0.8,0.8,1.3,1.1c0.5,0.3,1.2,0.4,2,0.4c0.7,0,1.3-0.1,1.9-0.3c0.5-0.2,1-0.4,1.4-0.7
			c0.4-0.3,0.6-0.7,0.8-1.1c0.2-0.4,0.3-0.9,0.3-1.4c0-0.5-0.1-0.9-0.2-1.3c-0.1-0.4-0.4-0.7-0.8-1c-0.4-0.3-0.9-0.6-1.5-0.9
			c-0.6-0.3-1.4-0.7-2.4-1.1c-1-0.5-1.9-0.9-2.6-1.3c-0.8-0.4-1.4-0.9-1.9-1.4c-0.5-0.5-0.9-1-1.1-1.7c-0.2-0.6-0.4-1.4-0.4-2.2
			c0-0.9,0.2-1.7,0.5-2.4c0.4-0.7,0.9-1.3,1.5-1.7c0.7-0.5,1.4-0.8,2.3-1.1c0.9-0.2,1.9-0.4,3-0.4c0.9,0,1.8,0.1,2.5,0.3
			c0.7,0.2,1.3,0.5,1.8,0.8c0.5,0.3,0.9,0.7,1.1,1.2c0.2,0.4,0.4,0.9,0.4,1.4c0,0.7-0.2,1.3-0.7,1.7c-0.5,0.4-1.2,0.6-2.1,0.6
			c0-1.3-0.3-2.3-0.8-3.1c-0.5-0.7-1.4-1.1-2.6-1.1c-0.7,0-1.2,0.1-1.7,0.2c-0.5,0.2-0.9,0.4-1.2,0.7c-0.3,0.3-0.5,0.6-0.7,1
			c-0.1,0.4-0.2,0.8-0.2,1.3c0,0.5,0.1,0.9,0.3,1.3c0.2,0.4,0.5,0.7,0.9,1c0.4,0.3,0.9,0.6,1.5,0.9c0.6,0.3,1.4,0.6,2.2,1
			c1,0.4,1.9,0.9,2.7,1.3c0.7,0.4,1.4,0.9,1.8,1.4c0.5,0.5,0.8,1.1,1.1,1.7c0.2,0.6,0.3,1.4,0.3,2.2c0,1-0.2,1.9-0.6,2.7
			c-0.4,0.8-0.9,1.4-1.6,1.9c-0.7,0.5-1.5,0.9-2.5,1.2C93.8,30.1,92.8,30.3,91.6,30.3z"/>
		<path fill="#BBBA5E" d="M112.2,28.2c0.5,0,0.9,0,1.3-0.1c0.4-0.1,0.8-0.1,1.2-0.2v1.7c-0.2,0.1-0.4,0.2-0.7,0.2
			c-0.3,0.1-0.6,0.1-0.9,0.2c-0.3,0.1-0.6,0.1-1,0.1c-0.4,0-0.7,0.1-1,0.1c-1,0-1.9-0.1-2.6-0.3c-0.7-0.2-1.3-0.6-1.8-1
			c-0.5-0.5-0.8-1.1-1-1.9c-0.2-0.8-0.3-1.7-0.3-2.9V11h-3V9.4c0.5,0,1-0.1,1.6-0.3c0.6-0.2,1.1-0.5,1.5-1c0.4-0.5,0.8-1.1,1.1-1.7
			c0.3-0.7,0.5-1.5,0.7-2.5h1.8v4.8h5.2V11h-5.2v13.3c0,1.3,0.3,2.3,0.8,3C110.6,27.9,111.3,28.2,112.2,28.2z"/>
		<path fill="#BBBA5E" d="M144.2,29.9v-1.7h0.5c0.4,0,0.9,0,1.3-0.1c0.4-0.1,0.7-0.2,1-0.4c0.3-0.2,0.5-0.5,0.7-0.9
			c0.2-0.4,0.3-0.9,0.3-1.5v-9.2h-12.8v9.2c0,0.6,0.1,1.1,0.3,1.5c0.2,0.4,0.4,0.7,0.7,0.9c0.3,0.2,0.6,0.3,1,0.4
			c0.4,0.1,0.8,0.1,1.2,0.1h0.5v1.7h-11.5v-1.7h0.5c0.4,0,0.9,0,1.3-0.1c0.4-0.1,0.7-0.2,1-0.4c0.3-0.2,0.5-0.5,0.7-0.9
			c0.2-0.4,0.2-0.9,0.2-1.5V6.1c0-0.6-0.1-1-0.3-1.4c-0.2-0.4-0.4-0.6-0.7-0.8c-0.3-0.2-0.6-0.3-1-0.4c-0.4-0.1-0.8-0.1-1.2-0.1
			h-0.5V1.8h11.5v1.7h-0.5c-0.4,0-0.9,0-1.2,0.1c-0.4,0.1-0.7,0.2-1,0.4c-0.3,0.2-0.5,0.5-0.7,0.9c-0.2,0.4-0.3,0.9-0.3,1.5v8h12.8
			v-8c0-0.6-0.1-1.1-0.3-1.5c-0.2-0.4-0.4-0.7-0.7-0.9c-0.3-0.2-0.6-0.3-1-0.4c-0.4-0.1-0.8-0.1-1.3-0.1h-0.5V1.8h11.5v1.7h-0.5
			c-0.4,0-0.9,0-1.3,0.1c-0.4,0.1-0.7,0.2-1,0.4c-0.3,0.2-0.5,0.5-0.7,0.9c-0.2,0.4-0.3,0.9-0.3,1.5v19.4c0,0.6,0.1,1,0.3,1.4
			c0.2,0.3,0.4,0.6,0.7,0.8c0.3,0.2,0.6,0.3,1,0.4c0.4,0.1,0.8,0.1,1.2,0.1h0.5v1.7H144.2z"/>
		<path fill="#BBBA5E" d="M159.7,28.2c0.4,0,0.8,0,1.2-0.1c0.4-0.1,0.7-0.2,1-0.4c0.3-0.2,0.5-0.4,0.7-0.8c0.2-0.4,0.3-0.8,0.3-1.4
			V13.1c0-0.6-0.1-1-0.3-1.4c-0.2-0.3-0.4-0.6-0.7-0.8c-0.3-0.2-0.6-0.3-1-0.4c-0.4-0.1-0.8-0.1-1.2-0.1h-0.1V8.8h7v16.6
			c0,0.6,0.1,1.1,0.3,1.5c0.2,0.4,0.4,0.7,0.7,0.9c0.3,0.2,0.6,0.3,1,0.4c0.4,0.1,0.8,0.1,1.3,0.1h0.5v1.7h-11.2v-1.7H159.7z
			 M162.4,2.4c0-0.5,0.1-0.8,0.2-1.2c0.1-0.3,0.3-0.6,0.5-0.7c0.2-0.2,0.4-0.3,0.7-0.4C164,0,164.3,0,164.7,0c0.3,0,0.6,0,0.9,0.1
			c0.3,0.1,0.5,0.2,0.7,0.4c0.2,0.2,0.4,0.4,0.5,0.7c0.1,0.3,0.2,0.7,0.2,1.2c0,0.5-0.1,0.8-0.2,1.2c-0.1,0.3-0.3,0.6-0.5,0.8
			c-0.2,0.2-0.4,0.3-0.7,0.4c-0.3,0.1-0.6,0.1-0.9,0.1c-0.3,0-0.6,0-0.9-0.1c-0.3-0.1-0.5-0.2-0.7-0.4c-0.2-0.2-0.4-0.4-0.5-0.8
			C162.5,3.2,162.4,2.8,162.4,2.4z"/>
		<path fill="#BBBA5E" d="M173.8,28.2c0.4,0,0.9,0,1.3-0.1c0.4-0.1,0.7-0.2,1-0.4c0.3-0.2,0.5-0.5,0.7-0.9c0.2-0.4,0.3-0.9,0.3-1.5
			V4.3c0-0.6-0.1-1-0.3-1.4c-0.2-0.4-0.4-0.6-0.7-0.8c-0.3-0.2-0.6-0.3-1-0.4c-0.4-0.1-0.8-0.1-1.2-0.1h-0.5V0h7.4v25.4
			c0,0.6,0.1,1.1,0.3,1.5c0.2,0.4,0.4,0.7,0.7,0.9c0.3,0.2,0.6,0.3,1,0.4c0.4,0.1,0.8,0.1,1.3,0.1h0.5v1.7h-11.2v-1.7H173.8z"/>
		<path fill="#BBBA5E" d="M187.8,28.2c0.4,0,0.9,0,1.3-0.1c0.4-0.1,0.7-0.2,1-0.4c0.3-0.2,0.5-0.5,0.7-0.9c0.2-0.4,0.3-0.9,0.3-1.5
			V4.3c0-0.6-0.1-1-0.3-1.4c-0.2-0.4-0.4-0.6-0.7-0.8c-0.3-0.2-0.6-0.3-1-0.4c-0.4-0.1-0.8-0.1-1.2-0.1h-0.5V0h7.4v25.4
			c0,0.6,0.1,1.1,0.2,1.5c0.2,0.4,0.4,0.7,0.7,0.9c0.3,0.2,0.6,0.3,1,0.4c0.4,0.1,0.8,0.1,1.3,0.1h0.5v1.7h-11.2v-1.7H187.8z"/>
	</g>
	<g>
		<path fill="#BBBA5E" d="M11.1,52.4H4.2l-1.6,5.3H0l6.6-20.4h2.2l6.6,20.4h-2.6L11.1,52.4z M4.9,50.2h5.6L7.7,41L4.9,50.2z"/>
		<path fill="#BBBA5E" d="M33.8,57.8h-2.6L23,42.1v15.7h-2.6V37.4H23l8.2,15.8V37.4h2.5V57.8z"/>
		<path fill="#BBBA5E" d="M42.8,57.8h-2.6V37.4h2.6V57.8z"/>
		<path fill="#BBBA5E" d="M52.6,37.4L57.9,54l5.3-16.6h3.3v20.4H64v-7.9l0.2-7.9l-5.3,15.9h-2l-5.3-15.8l0.2,7.9v7.9h-2.6V37.4H52.6
			z"/>
		<path fill="#BBBA5E" d="M82.8,52.4h-6.9l-1.6,5.3h-2.6l6.6-20.4h2.2L87,57.8h-2.6L82.8,52.4z M76.5,50.2h5.6L79.3,41L76.5,50.2z"
			/>
		<path fill="#BBBA5E" d="M94.7,55.6h8v2.2H92.1V37.4h2.6V55.6z"/>
		<path fill="#BBBA5E" d="M127.9,51.3c-0.1,2.2-0.7,3.9-1.8,5c-1.1,1.2-2.7,1.7-4.7,1.7c-2,0-3.7-0.8-4.9-2.3
			c-1.2-1.6-1.8-3.7-1.8-6.3v-3.7c0-2.6,0.6-4.7,1.9-6.3c1.2-1.5,2.9-2.3,5.1-2.3c2,0,3.5,0.6,4.6,1.8c1.1,1.2,1.7,2.9,1.8,5.1h-2.6
			c-0.1-1.7-0.5-2.8-1-3.6c-0.6-0.7-1.5-1.1-2.7-1.1c-1.4,0-2.5,0.5-3.2,1.6c-0.7,1.1-1.1,2.7-1.1,4.8v3.7c0,2.1,0.3,3.6,1,4.7
			c0.7,1.1,1.7,1.6,3,1.6c1.3,0,2.3-0.3,2.9-1c0.6-0.7,0.9-1.8,1.1-3.6H127.9z"/>
		<path fill="#BBBA5E" d="M136,55.6h8v2.2h-10.6V37.4h2.6V55.6z"/>
		<path fill="#BBBA5E" d="M151.9,57.8h-2.6V37.4h2.6V57.8z"/>
		<path fill="#BBBA5E" d="M171.6,57.8h-2.6l-8.2-15.7v15.7h-2.6V37.4h2.6l8.2,15.8V37.4h2.5V57.8z"/>
		<path fill="#BBBA5E" d="M180.7,57.8h-2.6V37.4h2.6V57.8z"/>
		<path fill="#BBBA5E" d="M200,51.3c-0.1,2.2-0.7,3.9-1.8,5c-1.1,1.2-2.7,1.7-4.7,1.7c-2,0-3.7-0.8-4.9-2.3
			c-1.2-1.6-1.8-3.7-1.8-6.3v-3.7c0-2.6,0.6-4.7,1.9-6.3c1.2-1.5,2.9-2.3,5.1-2.3c2,0,3.5,0.6,4.6,1.8c1.1,1.2,1.7,2.9,1.8,5.1h-2.6
			c-0.1-1.7-0.5-2.8-1.1-3.6c-0.6-0.7-1.5-1.1-2.7-1.1c-1.4,0-2.5,0.5-3.2,1.6c-0.7,1.1-1.1,2.7-1.1,4.8v3.7c0,2.1,0.4,3.6,1,4.7
			c0.7,1.1,1.7,1.6,3,1.6c1.3,0,2.3-0.3,2.9-1c0.6-0.7,1-1.8,1.1-3.6H200z"/>
	</g>
</g>
</svg>
