<?xml version="1.0" encoding="utf-8"?>
<!-- Generator: Adobe Illustrator 18.1.1, SVG Export Plug-In . SVG Version: 6.00 Build 0)  -->
<!DOCTYPE svg PUBLIC "-//W3C//DTD SVG 1.1//EN" "http://www.w3.org/Graphics/SVG/1.1/DTD/svg11.dtd">
<svg version="1.1" id="Layer_1" xmlns="http://www.w3.org/2000/svg" xmlns:xlink="http://www.w3.org/1999/xlink" x="0px" y="0px"
	 viewBox="564 409 32 32" enable-background="new 564 409 32 32" xml:space="preserve">
<path fill="#9D9FA2" d="M596,438.1l-7.7-7.7c4-4.2,4-10.9-0.1-15.1l-2.8-2.9c-2-2-4.7-3.1-7.6-3.1c-2.9,0-5.6,1.1-7.6,3.1l-2.9,2.9
	c-4.2,4.2-4.2,11,0,15.2l2.9,2.8c2,2,4.7,3.1,7.6,3.1c2.9,0,5.6-1.1,7.6-3.1l0.5-0.5l7.7,7.7L596,438.1z M577.6,433
	c-1.9,0-3.7-0.7-5.1-2.1l-2.9-2.9c-2.8-2.8-2.8-7.4,0-10.2l2.9-2.8c1.3-1.4,3.2-2.1,5.1-2.1c1.9,0,3.7,0.7,5.1,2.1l2.9,2.8
	c2.8,2.8,2.8,7.4,0,10.2l-2.9,2.9C581.4,432.2,579.6,433,577.6,433z"/>
</svg>
