<?xml version="1.0" encoding="utf-8"?>
<!-- Generator: Adobe Illustrator 18.1.1, SVG Export Plug-In . SVG Version: 6.00 Build 0)  -->
<!DOCTYPE svg PUBLIC "-//W3C//DTD SVG 1.1//EN" "http://www.w3.org/Graphics/SVG/1.1/DTD/svg11.dtd">
<svg version="1.1" id="Layer_1" xmlns="http://www.w3.org/2000/svg" xmlns:xlink="http://www.w3.org/1999/xlink" x="0px" y="0px"
	 viewBox="0 0 300 225" enable-background="new 0 0 300 225" xml:space="preserve">
<g>
	<g>
		<path fill="#BBBA5E" d="M12.9,74.6v17.1h14.3v2.8H12.9v12.6c0,0.9,0.2,1.7,0.4,2.2c0.3,0.6,0.6,1.1,1.1,1.3
			c0.4,0.3,0.9,0.4,1.5,0.6s1.2,0.2,1.8,0.2h2v2.6H1.3v-2.6h0.8c0.6,0,1.3,0,1.8-0.2c0.6-0.2,1-0.3,1.5-0.6c0.6-0.3,0.9-0.8,1.2-1.2
			c0.3-0.6,0.4-1.2,0.4-2.1V78.2c0-0.9-0.1-1.5-0.4-2.1c-0.3-0.6-0.6-0.9-1.1-1.2c-0.4-0.3-1.1-0.4-1.7-0.6
			c-0.5-0.2-1.2-0.2-1.8-0.2H1.3v-2.4h29.8l0.3,10.4h-3l-0.4-2.6c0-0.6-0.3-1.3-0.4-1.9c-0.3-0.6-0.6-1.1-1.1-1.5
			c-0.4-0.5-1.1-0.8-1.6-1.1c-0.6-0.3-1.5-0.4-2.4-0.4C22.5,74.6,12.9,74.6,12.9,74.6z"/>
		<path fill="#BBBA5E" d="M61.8,97.9c0,5.6-1.2,9.8-3.6,12.4c-2.4,2.7-5.8,4.1-10.3,4.1c-2.1,0-4-0.3-5.7-1.1
			c-1.7-0.8-3.2-1.6-4.3-3c-1.2-1.3-2.1-3.1-2.7-5.1c-0.6-2.1-0.9-4.5-0.9-7.2c0-5.6,1.2-9.6,3.5-12.3c2.4-2.7,5.8-4,10.3-4
			c2.1,0,4.1,0.3,5.7,1c1.7,0.6,3.2,1.7,4.4,3c1.2,1.3,2.1,3,2.7,5.1C61.5,92.7,61.8,95.1,61.8,97.9z M39.9,97.9
			c0,2.2,0.2,4.1,0.4,5.8c0.3,1.7,0.8,3,1.3,4.2c0.6,1.2,1.5,1.9,2.6,2.5s2.2,0.9,3.8,0.9s2.7-0.3,3.8-0.9s1.8-1.3,2.6-2.5
			c0.6-1.1,1-2.6,1.3-4.2c0.3-1.7,0.5-3.6,0.5-5.8s-0.1-4.2-0.5-5.7c-0.3-1.7-0.8-3-1.3-4.2c-0.6-1-1.5-1.9-2.6-2.5
			s-2.2-0.9-3.8-0.9s-2.7,0.3-3.8,0.9c-1.1,0.6-1.8,1.3-2.6,2.5c-0.6,1.1-1,2.6-1.3,4.2C40.1,93.8,39.9,95.7,39.9,97.9z"/>
		<path fill="#BBBA5E" d="M83.7,113.8H66.6v-2.6h0.1c0.6,0,1.4,0,1.9-0.2c0.6-0.1,1.1-0.3,1.5-0.6c0.4-0.3,0.8-0.8,1.1-1.3
			s0.4-1.3,0.4-2.2V88.7c0-0.9-0.1-1.5-0.4-2.1c-0.3-0.5-0.6-0.9-1.1-1.2c-0.4-0.3-0.9-0.4-1.5-0.6c-0.6-0.2-1.2-0.2-1.8-0.2h-0.1
			v-2.4h9.1l1.2,5.9h0.3c0.5-0.9,0.8-1.7,1.2-2.6c0.4-0.8,0.9-1.5,1.5-2.1c0.6-0.6,1.3-1,2.1-1.3c0.9-0.3,1.9-0.4,3.3-0.4
			c2.1,0,3.8,0.4,4.8,1.2s1.6,1.8,1.6,3.2c0,0.6-0.1,1.2-0.3,1.7c-0.1,0.6-0.6,0.9-0.9,1.3c-0.4,0.4-1.1,0.6-1.6,0.9
			c-0.8,0.1-1.5,0.3-2.6,0.3c0-1.7-0.3-2.8-0.8-3.6s-1.2-1.1-2.4-1.1c-0.8,0-1.3,0.2-1.9,0.6c-0.6,0.5-1.1,0.9-1.5,1.7
			s-0.8,1.5-1.1,2.4c-0.3,0.9-0.6,1.8-0.8,2.7c-0.1,0.9-0.3,1.8-0.4,2.8c-0.2,0.9-0.2,1.8-0.2,2.5v9.3c0,0.9,0.2,1.5,0.5,2.1
			c0.3,0.4,0.6,0.9,1,1.2c0.5,0.3,0.9,0.4,1.5,0.6c0.6,0.2,1.2,0.2,1.8,0.2H84v2.2H83.7z"/>
		<path fill="#BBBA5E" d="M110,114.4c-2.1,0-4-0.3-5.7-1.1c-1.6-0.8-3.1-1.8-4.4-3.1c-1.2-1.4-2.1-3.2-2.7-5.1
			c-0.6-1.9-0.9-4.3-0.9-6.9c0-5.6,1.2-9.8,3.5-12.5c2.2-2.8,5.5-4.2,9.8-4.2c2,0,3.6,0.3,5.1,0.9c1.5,0.6,2.8,1.5,3.9,2.7
			s1.8,2.7,2.4,4.3c0.6,1.8,0.9,3.8,0.9,6.2v2.7H102c0,2.1,0.3,4.1,0.6,5.6c0.4,1.5,0.9,2.8,1.6,3.8c0.8,1.1,1.6,1.8,2.7,2.2
			c1,0.4,2.2,0.8,3.8,0.8c1,0,2-0.2,2.8-0.3c0.9-0.3,1.7-0.6,2.4-0.9c0.8-0.5,1.3-0.8,2-1.4c0.6-0.4,1-1,1.4-1.5
			c0.3,0.2,0.4,0.3,0.8,0.8c0.3,0.3,0.3,0.8,0.3,1.4c0,0.6-0.1,1.2-0.6,1.9s-1,1.3-2,1.9c-0.9,0.6-2,1.1-3.3,1.5
			C113.2,114.2,111.8,114.4,110,114.4z M109.2,84.8c-2.2,0-3.9,0.9-5.1,2.7c-1.2,1.8-2,4.4-2.1,7.8h13.6c0-1.5-0.1-3-0.3-4.2
			c-0.3-1.4-0.6-2.4-1.1-3.3s-1.2-1.7-1.9-2.1C111.5,85.1,110.4,84.8,109.2,84.8z"/>
		<path fill="#BBBA5E" d="M137.4,114.4c-1.5,0-2.9-0.2-4-0.4c-1.2-0.3-2.2-0.6-3-1.2c-0.9-0.6-1.5-1.2-2-1.9
			c-0.4-0.8-0.8-1.7-0.8-2.7c0-0.8,0.2-1.5,0.5-1.9c0.3-0.6,0.6-0.9,0.9-1.2c0.5-0.3,0.8-0.6,1.2-0.6c0.4-0.2,0.8-0.2,1.2-0.2
			c0,1,0.1,1.9,0.3,2.8c0.1,0.9,0.6,1.7,1,2.4c0.5,0.8,1.2,1.2,2,1.7c0.8,0.4,1.8,0.6,3,0.6c1,0,1.9-0.2,2.8-0.5
			c0.8-0.3,1.5-0.6,2.1-1c0.6-0.5,0.9-1.1,1.2-1.7s0.5-1.3,0.5-2.1s-0.1-1.3-0.3-2c-0.2-0.6-0.6-1-1.2-1.5c-0.6-0.4-1.4-0.9-2.2-1.3
			c-0.9-0.4-2.1-1-3.6-1.7c-1.5-0.8-2.9-1.3-3.9-1.9c-1.2-0.6-2.1-1.3-2.9-2.1s-1.4-1.5-1.6-2.6c-0.3-0.9-0.6-2.1-0.6-3.3
			c0-1.3,0.3-2.6,0.8-3.6c0.6-1,1.4-1.9,2.2-2.5c1.1-0.8,2.1-1.2,3.5-1.7c1.4-0.3,2.9-0.6,4.5-0.6c1.4,0,2.7,0.2,3.8,0.4
			c1,0.3,1.9,0.8,2.7,1.2c0.8,0.4,1.4,1,1.7,1.8c0.3,0.6,0.6,1.3,0.6,2.1c0,1.1-0.3,2-1,2.6s-1.8,0.9-3.2,0.9c0-2-0.4-3.5-1.2-4.7
			c-0.8-1-2.1-1.7-3.9-1.7c-1.1,0-1.8,0.2-2.6,0.3c-0.8,0.3-1.4,0.6-1.8,1c-0.5,0.5-0.8,0.9-1.1,1.5c-0.1,0.6-0.3,1.2-0.3,2
			s0.1,1.3,0.4,1.9s0.8,1.1,1.4,1.5c0.6,0.5,1.4,0.9,2.2,1.3c0.9,0.5,2.1,0.9,3.3,1.5c1.5,0.6,2.9,1.4,4.1,2
			c1.1,0.6,2.1,1.3,2.7,2.1c0.8,0.8,1.2,1.7,1.7,2.6c0.3,0.9,0.4,2.1,0.4,3.3c0,1.5-0.3,2.8-0.9,4.1c-0.6,1.2-1.4,2.1-2.4,2.8
			c-1.1,0.8-2.2,1.3-3.8,1.8C140.7,114.2,139.2,114.4,137.4,114.4z"/>
		<path fill="#BBBA5E" d="M168.3,111.3c0.8,0,1.4,0,2-0.2s1.2-0.2,1.8-0.3v2.6c-0.3,0.2-0.6,0.3-1,0.3c-0.5,0.2-0.9,0.2-1.4,0.3
			c-0.4,0.2-0.9,0.2-1.5,0.2s-1,0.2-1.5,0.2c-1.5,0-2.9-0.2-3.9-0.4c-1-0.3-2-0.9-2.7-1.5c-0.8-0.8-1.2-1.7-1.5-2.8
			c-0.3-1.2-0.4-2.6-0.4-4.3V85.5h-4.5v-2.4c0.8,0,1.5-0.2,2.4-0.4c0.9-0.3,1.7-0.8,2.2-1.5c0.6-0.8,1.2-1.7,1.7-2.6
			c0.4-1,0.8-2.2,1-3.8h2.7v7.2h7.8v3.4h-7.8v19.9c0,1.9,0.4,3.4,1.2,4.5C165.9,110.8,167,111.3,168.3,111.3z"/>
		<path fill="#BBBA5E" d="M216.3,113.8v-2.6h0.8c0.6,0,1.4,0,2-0.2c0.6-0.1,1-0.3,1.5-0.6c0.5-0.3,0.8-0.8,1-1.3
			c0.3-0.6,0.5-1.3,0.5-2.2V93.1h-19.2v13.8c0,0.9,0.2,1.7,0.5,2.2s0.6,1.1,1,1.3c0.5,0.3,0.9,0.5,1.5,0.6c0.6,0.2,1.2,0.2,1.8,0.2
			h0.8v2.6h-17.2v-2.6h0.8c0.6,0,1.3,0,1.9-0.2c0.6-0.1,1.1-0.3,1.5-0.6c0.5-0.3,0.8-0.8,1.1-1.3s0.3-1.3,0.3-2.2V78.2
			c0-0.9-0.2-1.5-0.5-2.1c-0.3-0.6-0.6-0.9-1-1.2c-0.5-0.3-0.9-0.4-1.5-0.6c-0.6-0.2-1.2-0.2-1.8-0.2h-0.8v-2.4h17.2v2.6h-0.8
			c-0.6,0-1.3,0-1.8,0.2c-0.6,0.2-1,0.3-1.5,0.6c-0.4,0.3-0.8,0.8-1,1.3s-0.5,1.3-0.5,2.2v12H222v-12c0-0.9-0.2-1.7-0.5-2.2
			c-0.3-0.6-0.6-1-1-1.3s-0.9-0.4-1.5-0.6s-1.2-0.2-2-0.2h-0.8v-2.6h17.2v2.6h-0.8c-0.6,0-1.3,0-1.9,0.2c-0.6,0.2-1.1,0.3-1.5,0.6
			s-0.8,0.8-1.1,1.3c-0.3,0.6-0.4,1.3-0.4,2.2v29.1c0,0.9,0.2,1.5,0.4,2.1c0.3,0.5,0.6,0.9,1.1,1.2c0.4,0.3,0.9,0.4,1.5,0.6
			s1.2,0.2,1.8,0.2h0.8v2.5h-17.1V113.8z"/>
		<path fill="#BBBA5E" d="M239.5,111.3c0.6,0,1.2,0,1.8-0.2s1.1-0.3,1.5-0.6c0.4-0.3,0.8-0.6,1.1-1.2c0.3-0.6,0.4-1.2,0.4-2.1V88.7
			c0-0.9-0.2-1.5-0.4-2.1c-0.3-0.5-0.6-0.9-1.1-1.2c-0.4-0.3-0.9-0.4-1.5-0.6s-1.2-0.2-1.8-0.2h-0.1v-2.4h10.5v24.9
			c0,0.9,0.1,1.6,0.4,2.2c0.3,0.6,0.6,1,1.1,1.3c0.4,0.3,0.9,0.4,1.5,0.6c0.6,0.2,1.2,0.2,1.9,0.2h0.8v2.5h-16.8v-2.5h0.8V111.3z
			 M243.6,72.6c0-0.8,0.2-1.2,0.3-1.8c0.1-0.5,0.4-0.9,0.8-1.1c0.3-0.3,0.6-0.4,1-0.6C246,69,246.5,69,247,69c0.5,0,0.9,0,1.4,0.2
			c0.4,0.2,0.8,0.3,1,0.6s0.6,0.6,0.8,1.1c0.2,0.4,0.3,1,0.3,1.8s-0.1,1.2-0.3,1.8c-0.2,0.4-0.5,0.9-0.8,1.2c-0.3,0.3-0.6,0.5-1,0.6
			c-0.5,0.2-0.9,0.2-1.4,0.2c-0.4,0-0.9,0-1.3-0.2c-0.5-0.1-0.8-0.3-1.1-0.6c-0.3-0.3-0.6-0.6-0.8-1.2S243.6,73.2,243.6,72.6z"/>
		<path fill="#BBBA5E" d="M260.7,111.3c0.6,0,1.3,0,2-0.2c0.6-0.2,1-0.3,1.5-0.6c0.4-0.3,0.8-0.8,1-1.3s0.5-1.3,0.5-2.2V75.4
			c0-0.9-0.2-1.5-0.5-2.1s-0.6-0.9-1-1.2c-0.5-0.3-0.9-0.5-1.5-0.6c-0.6-0.2-1.2-0.2-1.8-0.2h-0.8V69h11.1v38.1
			c0,0.9,0.1,1.7,0.5,2.2c0.3,0.6,0.6,1.1,1,1.3c0.5,0.3,0.9,0.4,1.5,0.6c0.6,0.2,1.2,0.2,2,0.2h0.8v2.6h-16.8v-2.6h0.6V111.3z"/>
		<path fill="#BBBA5E" d="M281.7,111.3c0.6,0,1.3,0,2-0.2c0.6-0.2,1-0.3,1.5-0.6c0.4-0.3,0.8-0.8,1-1.3s0.5-1.3,0.5-2.2V75.4
			c0-0.9-0.2-1.5-0.5-2.1s-0.6-0.9-1-1.2c-0.5-0.3-0.9-0.5-1.5-0.6c-0.6-0.2-1.2-0.2-1.8-0.2h-0.8V69h11.1v38.1
			c0,0.9,0.1,1.7,0.3,2.2c0.3,0.6,0.6,1.1,1,1.3c0.5,0.3,0.9,0.4,1.5,0.6c0.6,0.2,1.2,0.2,2,0.2h0.8v2.6H281v-2.6h0.8V111.3z"/>
	</g>
	<g>
		<path fill="#BBBA5E" d="M16.7,147.6H6.3l-2.4,7.9H0L9.9,125h3.3l9.9,30.6h-3.9L16.7,147.6z M7.4,144.3h8.4l-4.2-13.8L7.4,144.3z"
			/>
		<path fill="#BBBA5E" d="M50.7,155.7h-3.9l-12.3-23.6v23.6h-3.9v-30.6h3.9l12.3,23.7v-23.7h3.8v30.6H50.7z"/>
		<path fill="#BBBA5E" d="M64.2,155.7h-3.9v-30.6h3.9V155.7z"/>
		<path fill="#BBBA5E" d="M78.9,125.1l8,24.9l7.9-24.9h4.9v30.6H96v-11.9l0.3-11.9l-7.9,23.9h-3l-8-23.7l0.3,11.8v11.9h-3.9v-30.8
			H78.9z"/>
		<path fill="#BBBA5E" d="M124.2,147.6h-10.3l-2.4,7.9h-3.9l9.9-30.6h3.3l9.8,30.7h-3.9L124.2,147.6z M114.8,144.3h8.4l-4.2-13.8
			L114.8,144.3z"/>
		<path fill="#BBBA5E" d="M142,152.4h12v3.3h-15.9v-30.6h3.9V152.4z"/>
		<path fill="#BBBA5E" d="M191.9,145.9c-0.1,3.3-1.1,5.9-2.7,7.5c-1.6,1.8-4,2.6-7,2.6s-5.6-1.2-7.4-3.4c-1.8-2.4-2.7-5.6-2.7-9.4
			v-5.6c0-3.9,0.9-7.1,2.9-9.4c1.8-2.2,4.4-3.5,7.6-3.5c3,0,5.2,0.9,6.9,2.7c1.6,1.8,2.5,4.4,2.7,7.6h-3.9c-0.1-2.6-0.8-4.2-1.5-5.4
			c-0.9-1.1-2.2-1.7-4-1.7c-2.1,0-3.8,0.8-4.8,2.4c-1,1.6-1.6,4.1-1.6,7.2v5.6c0,3.1,0.5,5.4,1.5,7.1c1,1.6,2.5,2.4,4.5,2.4
			s3.5-0.4,4.4-1.5s1.4-2.7,1.6-5.4h3.6V145.9z"/>
		<path fill="#BBBA5E" d="M204,152.4h12v3.3h-15.9v-30.6h3.9V152.4z"/>
		<path fill="#BBBA5E" d="M227.8,155.7h-3.9v-30.6h3.9V155.7z"/>
		<path fill="#BBBA5E" d="M257.4,155.7h-3.9l-12.3-23.6v23.6h-3.9v-30.6h3.9l12.3,23.7v-23.7h3.8v30.6H257.4z"/>
		<path fill="#BBBA5E" d="M271,155.7h-3.9v-30.6h3.9V155.7z"/>
		<path fill="#BBBA5E" d="M300,145.9c-0.2,3.3-1,5.9-2.7,7.5c-1.6,1.8-4,2.6-7,2.6s-5.5-1.2-7.3-3.4c-1.8-2.4-2.7-5.6-2.7-9.4v-5.6
			c0-3.9,0.9-7.1,2.8-9.4c1.8-2.2,4.4-3.5,7.7-3.5c3,0,5.2,0.9,6.9,2.7c1.7,1.8,2.6,4.4,2.7,7.6h-3.9c-0.2-2.6-0.8-4.2-1.7-5.4
			c-0.9-1.1-2.2-1.7-4-1.7c-2.1,0-3.8,0.8-4.8,2.4c-1.1,1.6-1.7,4.1-1.7,7.2v5.6c0,3.1,0.6,5.4,1.5,7.1c1,1.6,2.5,2.4,4.5,2.4
			s3.5-0.4,4.3-1.5c0.9-1.1,1.5-2.7,1.7-5.4h3.8V145.9z"/>
	</g>
</g>
</svg>
