<?xml version="1.0" encoding="utf-8"?>
<!-- Generator: Adobe Illustrator 18.1.1, SVG Export Plug-In . SVG Version: 6.00 Build 0)  -->
<!DOCTYPE svg PUBLIC "-//W3C//DTD SVG 1.1//EN" "http://www.w3.org/Graphics/SVG/1.1/DTD/svg11.dtd">
<svg version="1.1" id="Layer_1" xmlns="http://www.w3.org/2000/svg" xmlns:xlink="http://www.w3.org/1999/xlink" x="0px" y="0px"
	 viewBox="564 475.8 140 26" enable-background="new 564 475.8 140 26" xml:space="preserve">
<g>
	<g>
		<path fill="#676767" d="M598,515v-6h2v-3h-2v-1.2c0,0-0.1-0.5,0.3-0.9c0.2-0.1,0.4-0.3,0.7-0.3c0.4,0,1,0,1,0v-1.9
			c0,0-2.6,0-3,0.1c-0.9,0.2-1.6,1-1.8,1.7c-0.2,0.7-0.1,2.5-0.1,2.5H594v3h1v6H598z"/>
	</g>
</g>
<g>
	<rect x="641.1" y="477.9" fill="none" width="52.2" height="23"/>
	<text transform="matrix(1 0 0 1 641.1221 485.8534)" fill="#676767" font-family="'Overpass-Reg'" font-size="11">FOLLOW</text>
	<g>
		<path fill="#9D9FA2" d="M695.1,478.6l2.5,3l2.5-3h1.9l-3.7,4.7h-1.6l-3.7-4.7H695.1z"/>
	</g>
	<g>
		<path fill="#676767" d="M598,489v-6h2v-3h-2v-1.2c0,0-0.1-0.5,0.3-0.9c0.2-0.1,0.4-0.3,0.7-0.3c0.4,0,1,0,1,0v-1.9
			c0,0-2.6,0-3,0.1c-0.9,0.2-1.6,1-1.8,1.7c-0.2,0.7-0.1,2.5-0.1,2.5H594v3h1v6H598z"/>
	</g>
	<g>
		<path fill="#676767" d="M564,487.4c1.5,0.9,3.2,1.5,5,1.5c6,0,9.3-5,9.3-9.3c0-0.1,0-0.3,0-0.4c0.6-0.5,1.2-1,1.6-1.7
			c-0.6,0.3-1.2,0.4-1.9,0.5c0.7-0.4,1.2-1,1.4-1.8c-0.6,0.4-1.3,0.6-2.1,0.8c-0.6-0.6-1.5-1-2.4-1c-1.8,0-3.3,1.5-3.3,3.3
			c0,0.3,0,0.5,0.1,0.7c-2.7-0.1-5.1-1.4-6.8-3.4c-0.3,0.5-0.4,1-0.4,1.6c0,1.1,0.8,2.1,1.6,2.7c-0.5,0-1.3-0.2-1.3-0.4c0,0,0,0,0,0
			c0,1.6,1,2.9,2.5,3.2c-0.3,0.1-0.7,0.1-1,0.1c-0.2,0-0.5,0-0.7-0.1c0.4,1.3,1.6,2.3,3,2.3c-1.1,0.9-2.5,1.4-4.1,1.4
			C564.5,487.5,564.3,487.5,564,487.4z"/>
	</g>
	<polygon fill="#676767" points="619.8,483.7 619.8,488.9 617.2,488.9 617.2,483.7 612,483.7 612,481.1 617.2,481.1 617.2,475.9 
		619.8,475.9 619.8,481.1 625,481.1 625,483.7 	"/>
</g>
</svg>
