<?xml version="1.0" encoding="utf-8"?>
<!-- Generator: Adobe Illustrator 19.0.0, SVG Export Plug-In . SVG Version: 6.00 Build 0)  -->
<!DOCTYPE svg PUBLIC "-//W3C//DTD SVG 1.1//EN" "http://www.w3.org/Graphics/SVG/1.1/DTD/svg11.dtd">
<svg version="1.1" id="Layer_1" xmlns="http://www.w3.org/2000/svg" xmlns:xlink="http://www.w3.org/1999/xlink" x="0px" y="0px"
	 viewBox="57 0 140 26" style="enable-background:new 57 0 140 26;" xml:space="preserve">
<style type="text/css">
	.st0{fill:none;}
	.st1{enable-background:new    ;}
	.st2{fill:#676767;}
	.st3{fill:#9D9FA2;}
</style>
<g>
	<rect x="134.1" y="2.2" class="st0" width="52.2" height="23"/>
	<g class="st1">
		<path class="st2" d="M135.1,10.2V2.5h4.8v1.1h-3.6v2.1h2.3v1.1h-2.3v3.4H135.1z"/>
		<path class="st2" d="M144.3,10.3c-0.4,0-0.8-0.1-1.1-0.2c-0.3-0.1-0.6-0.3-0.9-0.4c-0.2-0.2-0.5-0.4-0.6-0.7s-0.3-0.5-0.4-0.8
			c-0.1-0.3-0.2-0.6-0.2-0.9c-0.1-0.3-0.1-0.6-0.1-1c0-0.3,0-0.6,0.1-1c0.1-0.3,0.1-0.6,0.2-0.9c0.1-0.3,0.3-0.6,0.4-0.8
			s0.4-0.5,0.6-0.7c0.2-0.2,0.5-0.3,0.9-0.4c0.3-0.1,0.7-0.2,1.1-0.2c0.4,0,0.8,0.1,1.1,0.2c0.3,0.1,0.6,0.3,0.9,0.4
			c0.2,0.2,0.5,0.4,0.6,0.7c0.2,0.3,0.3,0.5,0.4,0.8c0.1,0.3,0.2,0.6,0.2,0.9c0,0.3,0.1,0.6,0.1,1c0,0.3,0,0.6-0.1,1
			c-0.1,0.3-0.1,0.6-0.2,0.9c-0.1,0.3-0.3,0.6-0.4,0.8c-0.2,0.3-0.4,0.5-0.6,0.7c-0.2,0.2-0.5,0.3-0.9,0.4
			C145.1,10.2,144.8,10.3,144.3,10.3z M144.3,9.2c0.3,0,0.5,0,0.7-0.1c0.2-0.1,0.4-0.2,0.6-0.3c0.2-0.1,0.3-0.3,0.4-0.5
			s0.2-0.4,0.3-0.6s0.1-0.4,0.2-0.7c0-0.2,0-0.4,0-0.7c0-0.2,0-0.4,0-0.7c0-0.2-0.1-0.5-0.2-0.7s-0.2-0.4-0.3-0.6
			c-0.1-0.2-0.2-0.3-0.4-0.5c-0.2-0.1-0.3-0.2-0.6-0.3c-0.2-0.1-0.5-0.1-0.7-0.1c-0.3,0-0.5,0-0.7,0.1c-0.2,0.1-0.4,0.2-0.6,0.3
			c-0.2,0.1-0.3,0.3-0.4,0.5s-0.2,0.4-0.3,0.6c-0.1,0.2-0.1,0.4-0.2,0.7s0,0.4,0,0.6c0,0.3,0,0.7,0.1,1s0.2,0.7,0.4,0.9
			s0.4,0.5,0.7,0.7S143.9,9.2,144.3,9.2z"/>
		<path class="st2" d="M149.4,10.2V2.5h1.1v6.6h3.8v1.1H149.4z"/>
		<path class="st2" d="M155.8,10.2V2.5h1.1v6.6h3.8v1.1H155.8z"/>
		<path class="st2" d="M165.3,10.3c-0.4,0-0.8-0.1-1.1-0.2s-0.6-0.3-0.9-0.4c-0.2-0.2-0.5-0.4-0.6-0.7c-0.2-0.3-0.3-0.5-0.4-0.8
			c-0.1-0.3-0.2-0.6-0.2-0.9s-0.1-0.6-0.1-1c0-0.3,0-0.6,0.1-1s0.1-0.6,0.2-0.9c0.1-0.3,0.3-0.6,0.4-0.8c0.2-0.3,0.4-0.5,0.6-0.7
			c0.2-0.2,0.5-0.3,0.9-0.4s0.7-0.2,1.1-0.2s0.8,0.1,1.1,0.2s0.6,0.3,0.9,0.4c0.2,0.2,0.5,0.4,0.6,0.7c0.2,0.3,0.3,0.5,0.4,0.8
			c0.1,0.3,0.2,0.6,0.2,0.9s0.1,0.6,0.1,1c0,0.3,0,0.6-0.1,1s-0.1,0.6-0.2,0.9c-0.1,0.3-0.3,0.6-0.4,0.8c-0.2,0.3-0.4,0.5-0.6,0.7
			c-0.2,0.2-0.5,0.3-0.9,0.4S165.7,10.3,165.3,10.3z M165.3,9.2c0.3,0,0.5,0,0.7-0.1s0.4-0.2,0.6-0.3c0.2-0.1,0.3-0.3,0.4-0.5
			c0.1-0.2,0.2-0.4,0.3-0.6c0.1-0.2,0.1-0.4,0.2-0.7s0-0.4,0-0.7c0-0.2,0-0.4,0-0.7c0-0.2-0.1-0.5-0.2-0.7c-0.1-0.2-0.2-0.4-0.3-0.6
			c-0.1-0.2-0.2-0.3-0.4-0.5s-0.3-0.2-0.6-0.3c-0.2-0.1-0.5-0.1-0.7-0.1s-0.5,0-0.7,0.1s-0.4,0.2-0.6,0.3s-0.3,0.3-0.4,0.5
			c-0.1,0.2-0.2,0.4-0.3,0.6s-0.1,0.4-0.2,0.7c0,0.2,0,0.4,0,0.6c0,0.3,0,0.7,0.1,1c0.1,0.3,0.2,0.7,0.4,0.9s0.4,0.5,0.7,0.7
			C164.5,9.1,164.9,9.2,165.3,9.2z"/>
		<path class="st2" d="M178.2,2.5l-1.7,7.7h-1l-1.3-5c-0.1-0.2-0.1-0.4-0.1-0.5S174,4.4,174,4.3c0,0.1,0,0.2-0.1,0.3
			c0,0.1-0.1,0.3-0.1,0.5l-1.3,5h-1l-1.6-7.7h1.2l1,4.7c0,0.2,0.1,0.4,0.1,0.5c0,0.1,0,0.3,0.1,0.4c0-0.1,0-0.2,0.1-0.4
			c0-0.1,0.1-0.3,0.1-0.5l1.2-4.7h1l1.2,4.7c0.1,0.2,0.1,0.4,0.1,0.5s0.1,0.2,0.1,0.3c0-0.1,0-0.2,0.1-0.4c0-0.1,0.1-0.3,0.1-0.5
			l1-4.7H178.2z"/>
	</g>
	<g>
		<path class="st3" d="M188.1,2.9l2.5,3l2.5-3h1.9l-3.7,4.7h-1.6L186,2.9H188.1z"/>
	</g>
	<g>
		<path class="st2" d="M91,13.3v-6h2v-3h-2V3.1c0,0-0.1-0.5,0.3-0.9c0.2-0.1,0.4-0.3,0.7-0.3c0.4,0,1,0,1,0V0c0,0-2.6,0-3,0.1
			c-0.9,0.2-1.6,1-1.8,1.7s-0.1,2.5-0.1,2.5H87v3h1v6L91,13.3L91,13.3z"/>
	</g>
	<g>
		<path class="st2" d="M57,11.7c1.5,0.9,3.2,1.5,5,1.5c6,0,9.3-5,9.3-9.3c0-0.1,0-0.3,0-0.4c0.6-0.5,1.2-1,1.6-1.7
			c-0.6,0.3-1.2,0.4-1.9,0.5c0.7-0.4,1.2-1,1.4-1.8c-0.6,0.4-1.3,0.6-2.1,0.8c-0.6-0.6-1.5-1-2.4-1c-1.8,0-3.3,1.5-3.3,3.3
			c0,0.3,0,0.5,0.1,0.7c-2.7-0.1-5.1-1.4-6.8-3.4c-0.3,0.5-0.4,1-0.4,1.6c0,1.1,0.8,2.1,1.6,2.7c-0.5,0-1.3-0.2-1.3-0.4l0,0
			c0,1.6,1,2.9,2.5,3.2c-0.3,0.1-0.7,0.1-1,0.1c-0.2,0-0.5,0-0.7-0.1c0.4,1.3,1.6,2.3,3,2.3c-1.1,0.9-2.5,1.4-4.1,1.4
			C57.5,11.8,57.3,11.8,57,11.7z"/>
	</g>
	<polygon class="st2" points="112.8,8 112.8,13.2 110.2,13.2 110.2,8 105,8 105,5.4 110.2,5.4 110.2,0.2 112.8,0.2 112.8,5.4 
		118,5.4 118,8 	"/>
</g>
</svg>
