<?xml version="1.0" encoding="utf-8"?>
<!-- Generator: Adobe Illustrator 18.1.1, SVG Export Plug-In . SVG Version: 6.00 Build 0)  -->
<!DOCTYPE svg PUBLIC "-//W3C//DTD SVG 1.1//EN" "http://www.w3.org/Graphics/SVG/1.1/DTD/svg11.dtd">
<svg version="1.1" id="Layer_1" xmlns="http://www.w3.org/2000/svg" xmlns:xlink="http://www.w3.org/1999/xlink" x="0px" y="0px"
	 viewBox="0 0 296 54" enable-background="new 0 0 296 54" xml:space="preserve">
<g>
	<g>
		<rect x="165.2" y="4.7" fill="none" width="111.9" height="49.3"/>
		<text transform="matrix(1 0 0 1 165.261 21.7579)" fill="#676767" font-family="'Overpass-Reg'" font-size="23.5714">FOLLOW</text>
		<g>
			<path fill="#9D9FA2" d="M280.9,6.2l5.4,6.4l5.4-6.4h4.1l-7.9,10.1h-3.4l-7.9-10.1H280.9z"/>
		</g>
		<g>
			<path fill="#676767" d="M72.9,28.5V15.6h4.3V9.2h-4.3V6.6c0,0-0.2-1.1,0.6-1.9c0.4-0.2,0.9-0.6,1.5-0.6c0.9,0,2.1,0,2.1,0V0
				c0,0-5.6,0-6.4,0.2c-1.9,0.4-3.4,2.1-3.9,3.6s-0.2,5.4-0.2,5.4h-2.4v6.4h2.1v12.9L72.9,28.5L72.9,28.5z"/>
		</g>
		<g>
			<path fill="#676767" d="M0,25.1c3.2,1.9,6.9,3.2,10.7,3.2c12.9,0,19.9-10.7,19.9-19.9c0-0.2,0-0.6,0-0.9c1.3-1.1,2.6-2.1,3.4-3.6
				c-1.3,0.6-2.6,0.9-4.1,1.1c1.5-0.9,2.6-2.1,3-3.9c-1.3,0.9-2.8,1.3-4.5,1.7c-1.3-1.3-3.2-2.1-5.1-2.1c-3.9,0-7.1,3.2-7.1,7.1
				c0,0.6,0,1.1,0.2,1.5C10.7,9,5.6,6.2,1.9,1.9C1.3,3,1.1,4.1,1.1,5.4c0,2.4,1.7,4.5,3.4,5.8c-1.1,0-2.8-0.4-2.8-0.9l0,0
				c0,3.4,2.1,6.2,5.4,6.9c-0.6,0.2-1.5,0.2-2.1,0.2c-0.4,0-1.1,0-1.5-0.2c0.9,2.8,3.4,4.9,6.4,4.9c-2.4,1.9-5.4,3-8.8,3
				C1.1,25.3,0.6,25.3,0,25.1z"/>
		</g>
		<polygon fill="#676767" points="119.6,17.1 119.6,28.3 114,28.3 114,17.1 102.9,17.1 102.9,11.6 114,11.6 114,0.4 119.6,0.4 
			119.6,11.6 130.7,11.6 130.7,17.1 		"/>
	</g>
</g>
</svg>
