<?xml version="1.0" encoding="utf-8"?>
<!-- Generator: Adobe Illustrator 18.1.1, SVG Export Plug-In . SVG Version: 6.00 Build 0)  -->
<!DOCTYPE svg PUBLIC "-//W3C//DTD SVG 1.1//EN" "http://www.w3.org/Graphics/SVG/1.1/DTD/svg11.dtd">
<svg version="1.1" id="Layer_1" xmlns="http://www.w3.org/2000/svg" xmlns:xlink="http://www.w3.org/1999/xlink" x="0px" y="0px"
	 viewBox="0 0 32 32" enable-background="new 0 0 32 32" xml:space="preserve">
<g>
	<g>
		<path fill="#FFFFFF" d="M0,26.1C2.9,28,6.4,29,10.1,29c12.1,0,18.6-10,18.6-18.6c0-0.3,0-0.6,0-0.8C30,8.6,31.1,7.4,32,6.1
			c-1.2,0.5-2.4,0.9-3.8,1c1.4-0.8,2.4-2.1,2.9-3.6c-1.3,0.8-2.7,1.3-4.2,1.6C25.7,3.8,24,3,22.1,3c-3.6,0-6.6,2.9-6.6,6.6
			c0,0.5,0.1,1,0.2,1.5C10.3,10.8,5.5,8.2,2.3,4.2c-0.6,1-0.9,2.1-0.9,3.3c0,2.3,1.6,4.3,3.4,5.5c-1.1,0-2.5-0.3-2.5-0.8v0.1
			c0,3.2,1.8,5.8,4.8,6.4c-0.5,0.2-1.3,0.2-1.9,0.2c-0.4,0-0.9,0-1.3-0.1c0.8,2.6,3.2,4.5,6.1,4.6c-2.3,1.8-5.1,2.8-8.2,2.8
			C1,26.2,0.5,26.1,0,26.1z"/>
	</g>
</g>
</svg>
