<?xml version="1.0" encoding="utf-8"?>
<!-- Generator: Adobe Illustrator 19.0.0, SVG Export Plug-In . SVG Version: 6.00 Build 0)  -->
<!DOCTYPE svg PUBLIC "-//W3C//DTD SVG 1.1//EN" "http://www.w3.org/Graphics/SVG/1.1/DTD/svg11.dtd">
<svg version="1.1" id="Layer_1" xmlns="http://www.w3.org/2000/svg" xmlns:xlink="http://www.w3.org/1999/xlink" x="0px" y="0px"
	 width="26px" height="26px" viewBox="0 0 26 26" style="enable-background:new 0 0 26 26;" xml:space="preserve">
<style type="text/css">
	.st0{fill:#BBBA5E;}
	.st1{enable-background:new    ;}
	.st2{fill:#13545F;}
</style>
<g id="XMLID_1_">
	<circle id="XMLID_3_" class="st0" cx="13" cy="13" r="13"/>
	<g class="st1">
		<path class="st2" d="M9.4,18.8V6h4c1.3,0,2.4,0.3,3.1,0.9c0.7,0.6,1,1.5,1,2.6c0,0.7-0.1,1.2-0.4,1.7c-0.3,0.5-0.7,0.8-1.2,1
			c0.6,0.2,1,0.5,1.3,1c0.3,0.5,0.5,1.1,0.5,1.8c0,1.2-0.3,2.2-1,2.8c-0.7,0.6-1.7,1-3,1H9.4z M12,11.4h1.4c1,0,1.5-0.5,1.5-1.6
			c0-0.6-0.1-1-0.4-1.3s-0.6-0.4-1.1-0.4H12V11.4z M12,13.2v3.4h1.7c0.5,0,0.8-0.1,1.1-0.4c0.2-0.3,0.4-0.7,0.4-1.2
			c0-1.2-0.4-1.7-1.3-1.8H12z"/>
	</g>
</g>
</svg>
