<?xml version="1.0" encoding="utf-8"?>
<!-- Generator: Adobe Illustrator 19.0.0, SVG Export Plug-In . SVG Version: 6.00 Build 0)  -->
<!DOCTYPE svg PUBLIC "-//W3C//DTD SVG 1.1//EN" "http://www.w3.org/Graphics/SVG/1.1/DTD/svg11.dtd">
<svg version="1.1" id="Layer_1" xmlns="http://www.w3.org/2000/svg" xmlns:xlink="http://www.w3.org/1999/xlink" x="0px" y="0px"
	 viewBox="135 -14 296 54" style="enable-background:new 135 -14 296 54;" xml:space="preserve">
<style type="text/css">
	.st0{fill:#9D9FA2;}
	.st1{fill:#676767;}
	.st2{fill:#BBBA5E;}
</style>
<g>
	<g>
		<g>
			<path class="st0" d="M415.9-7.8l5.4,6.4l5.4-6.4h4.1l-7.9,10.1h-3.4l-7.9-10.1C411.6-7.8,415.9-7.8,415.9-7.8z"/>
		</g>
		<g>
			<path class="st1" d="M207.9,14.5V1.6h4.3v-6.4h-4.3v-2.6c0,0-0.2-1.1,0.6-1.9c0.4-0.2,0.9-0.6,1.5-0.6c0.9,0,2.1,0,2.1,0V-14
				c0,0-5.6,0-6.4,0.2c-1.9,0.4-3.4,2.1-3.9,3.6c-0.4,1.5-0.2,5.4-0.2,5.4h-2.4v6.4h2.1v12.9H207.9z"/>
		</g>
		<g>
			<path class="st1" d="M135,11.1c3.2,1.9,6.9,3.2,10.7,3.2c12.9,0,19.9-10.7,19.9-19.9c0-0.2,0-0.6,0-0.9c1.3-1.1,2.6-2.1,3.4-3.6
				c-1.3,0.6-2.6,0.9-4.1,1.1c1.5-0.9,2.6-2.1,3-3.9c-1.3,0.9-2.8,1.3-4.5,1.7c-1.3-1.3-3.2-2.1-5.1-2.1c-3.9,0-7.1,3.2-7.1,7.1
				c0,0.6,0,1.1,0.2,1.5c-5.7-0.3-10.8-3.1-14.5-7.4c-0.6,1.1-0.8,2.2-0.8,3.5c0,2.4,1.7,4.5,3.4,5.8c-1.1,0-2.8-0.4-2.8-0.9l0,0
				c0,3.4,2.1,6.2,5.4,6.9c-0.6,0.2-1.5,0.2-2.1,0.2c-0.4,0-1.1,0-1.5-0.2c0.9,2.8,3.4,4.9,6.4,4.9c-2.4,1.9-5.4,3-8.8,3
				C136.1,11.3,135.6,11.3,135,11.1z"/>
		</g>
		<polygon class="st1" points="254.6,3.1 254.6,14.3 249,14.3 249,3.1 237.9,3.1 237.9,-2.4 249,-2.4 249,-13.6 254.6,-13.6 
			254.6,-2.4 265.7,-2.4 265.7,3.1 		"/>
		<rect x="293.9" y="29.7" class="st2" width="137.1" height="10.3"/>
	</g>
	<g>
		<path class="st1" d="M302.4,7.8V-8.7h10.2v2.3h-7.8v4.5h5v2.3h-5v7.4H302.4z"/>
		<path class="st1" d="M322.2,8c-0.9,0-1.7-0.1-2.4-0.4c-0.7-0.2-1.3-0.6-1.8-1c-0.5-0.4-1-0.9-1.4-1.4c-0.4-0.5-0.7-1.1-0.9-1.8
			c-0.2-0.6-0.4-1.3-0.5-2C315,0.9,315,0.2,315-0.5c0-0.7,0.1-1.4,0.2-2s0.3-1.3,0.5-2c0.2-0.6,0.5-1.2,0.9-1.8
			c0.4-0.5,0.8-1,1.4-1.4s1.1-0.7,1.8-1s1.5-0.4,2.4-0.4c0.9,0,1.7,0.1,2.4,0.4s1.3,0.6,1.8,1s1,0.9,1.4,1.4
			c0.4,0.5,0.7,1.1,0.9,1.8c0.2,0.6,0.4,1.3,0.5,2s0.2,1.4,0.2,2c0,0.7-0.1,1.4-0.2,2.1c-0.1,0.7-0.3,1.3-0.5,2
			c-0.2,0.6-0.5,1.2-0.9,1.8c-0.4,0.5-0.8,1-1.4,1.4c-0.5,0.4-1.1,0.7-1.8,1C323.8,7.9,323,8,322.2,8z M322.2,5.7
			c0.6,0,1.1-0.1,1.5-0.3c0.5-0.2,0.8-0.4,1.2-0.7c0.3-0.3,0.6-0.7,0.9-1.1c0.2-0.4,0.4-0.8,0.6-1.3c0.2-0.5,0.3-0.9,0.3-1.4
			s0.1-0.9,0.1-1.4c0-0.5,0-1-0.1-1.5s-0.2-1-0.3-1.4c-0.2-0.5-0.4-0.9-0.6-1.3c-0.2-0.4-0.5-0.7-0.9-1c-0.3-0.3-0.7-0.5-1.2-0.7
			c-0.5-0.2-1-0.3-1.5-0.3c-0.6,0-1.1,0.1-1.5,0.3c-0.5,0.2-0.9,0.4-1.2,0.7c-0.3,0.3-0.6,0.7-0.9,1.1c-0.2,0.4-0.4,0.8-0.6,1.3
			c-0.2,0.5-0.3,0.9-0.3,1.4c-0.1,0.5-0.1,0.9-0.1,1.4c0,0.7,0.1,1.4,0.2,2.2s0.4,1.4,0.8,2s0.8,1.1,1.4,1.5S321.3,5.7,322.2,5.7z"
			/>
		<path class="st1" d="M333,7.8V-8.7h2.5V5.4h8.1v2.4H333z"/>
		<path class="st1" d="M346.7,7.8V-8.7h2.5V5.4h8.1v2.4H346.7z"/>
		<path class="st1" d="M367,8c-0.9,0-1.7-0.1-2.4-0.4c-0.7-0.2-1.3-0.6-1.8-1c-0.5-0.4-1-0.9-1.4-1.4c-0.4-0.5-0.7-1.1-0.9-1.8
			c-0.2-0.6-0.4-1.3-0.5-2c-0.1-0.7-0.2-1.4-0.2-2.1c0-0.7,0.1-1.4,0.2-2s0.3-1.3,0.5-2c0.2-0.6,0.5-1.2,0.9-1.8
			c0.4-0.5,0.8-1,1.4-1.4s1.1-0.7,1.8-1S366.1-9,367-9c0.9,0,1.7,0.1,2.4,0.4s1.3,0.6,1.8,1s1,0.9,1.4,1.4c0.4,0.5,0.7,1.1,0.9,1.8
			c0.2,0.6,0.4,1.3,0.5,2s0.2,1.4,0.2,2c0,0.7-0.1,1.4-0.2,2.1c-0.1,0.7-0.3,1.3-0.5,2c-0.2,0.6-0.5,1.2-0.9,1.8
			c-0.4,0.5-0.8,1-1.4,1.4c-0.5,0.4-1.1,0.7-1.8,1C368.7,7.9,367.9,8,367,8z M367,5.7c0.6,0,1.1-0.1,1.5-0.3
			c0.5-0.2,0.8-0.4,1.2-0.7c0.3-0.3,0.6-0.7,0.9-1.1c0.2-0.4,0.4-0.8,0.6-1.3c0.2-0.5,0.3-0.9,0.3-1.4s0.1-0.9,0.1-1.4
			c0-0.5,0-1-0.1-1.5s-0.2-1-0.3-1.4c-0.2-0.5-0.4-0.9-0.6-1.3c-0.2-0.4-0.5-0.7-0.9-1c-0.3-0.3-0.7-0.5-1.2-0.7
			c-0.5-0.2-1-0.3-1.5-0.3c-0.6,0-1.1,0.1-1.5,0.3c-0.5,0.2-0.9,0.4-1.2,0.7c-0.3,0.3-0.6,0.7-0.9,1.1c-0.2,0.4-0.4,0.8-0.6,1.3
			c-0.2,0.5-0.3,0.9-0.3,1.4c-0.1,0.5-0.1,0.9-0.1,1.4c0,0.7,0.1,1.4,0.2,2.2s0.4,1.4,0.8,2s0.8,1.1,1.4,1.5S366.1,5.7,367,5.7z"/>
		<path class="st1" d="M394.8-8.7l-3.6,16.5H389l-2.9-10.7c-0.1-0.4-0.2-0.8-0.3-1.1c-0.1-0.3-0.1-0.5-0.1-0.7
			c0,0.2-0.1,0.4-0.1,0.7s-0.1,0.6-0.3,1.1l-2.8,10.7h-2.2l-3.5-16.5h2.5l2,10.2c0.1,0.5,0.2,0.9,0.2,1.2c0.1,0.3,0.1,0.5,0.1,0.8
			c0-0.2,0.1-0.5,0.1-0.8c0.1-0.3,0.2-0.7,0.3-1.2l2.6-10.2h2.1l2.7,10.1c0.1,0.5,0.2,0.9,0.3,1.1c0.1,0.3,0.1,0.5,0.1,0.7
			c0-0.2,0.1-0.5,0.1-0.8c0-0.3,0.1-0.7,0.2-1.1l2.1-10.1H394.8z"/>
	</g>
</g>
</svg>
